<?xml version="1.0" encoding="UTF-8" standalone="no"?>
<svg
   xml:space="preserve"
   viewBox="0 0 768 704"
   version="1.1"
   id="svg22"
   sodipodi:docname="logo-original-green.svg"
   inkscape:version="1.2.2 (b0a8486541, 2022-12-01)"
   xmlns:inkscape="http://www.inkscape.org/namespaces/inkscape"
   xmlns:sodipodi="http://sodipodi.sourceforge.net/DTD/sodipodi-0.dtd"
   xmlns="http://www.w3.org/2000/svg"
   xmlns:svg="http://www.w3.org/2000/svg"><defs
     id="defs26" /><sodipodi:namedview
     id="namedview24"
     pagecolor="#ffffff"
     bordercolor="#000000"
     borderopacity="0.25"
     inkscape:showpageshadow="2"
     inkscape:pageopacity="0"
     inkscape:pagecheckerboard="true"
     inkscape:deskcolor="#d1d1d1"
     showgrid="false"
     inkscape:zoom="1.1150568"
     inkscape:cx="385.18217"
     inkscape:cy="352.89682"
     inkscape:window-width="1854"
     inkscape:window-height="1011"
     inkscape:window-x="0"
     inkscape:window-y="0"
     inkscape:window-maximized="1"
     inkscape:current-layer="svg22"><inkscape:grid
       type="xygrid"
       id="grid1172" /></sodipodi:namedview><ellipse
     style="fill:#ffffff;stroke-width:1.12514;fill-opacity:1"
     id="path3524"
     cx="412.57007"
     cy="351.31686"
     rx="305.69489"
     ry="298.4118" /><path
     d="M429.6 1c5.4 1.2 7.4 4.7 7.6 9.5a24 24 0 0 0 5.2 12.7c4.8 6.6 12 7.4 18.3 2.4 4.5-3.5 7.1-8.3 9.5-13.3 2.4-4.9 12.2-6.8 16.2-3.3 1 1 .8 2.2 1 3.3 1 5.4.4 11 2 16.3 3.2 10.4 11.9 13.6 21 7.7 4.3-2.8 7.6-6.5 10.1-11 2-3.4 4.5-5 8.7-3.4 4.1 1.5 7.7 3 7.2 8.5-.3 4-.2 8 0 12 .2 11.5 8.8 17.2 19.4 13 5.5-2.1 9.5-6 13-10.7 2-2.7 4.2-4.3 7.4-1.8 3.4 2.6 9.7 3.1 7.5 9.9-1.9 5.4-2.8 11-2.4 16.7.5 8.1 6.6 12.9 14.6 11.7a32 32 0 0 0 16.4-9c3.3-2.8 6-3.2 9 0l.4.4c7.4 5.8 7.3 4 3 12.6a29.8 29.8 0 0 0-3.4 14.4c.2 8.8 7 14.4 15.7 12.7a41 41 0 0 0 15.8-7.1c2.7-1.9 4.6-1.6 7 .8 7 7.1 7.2 7 1.6 15.7-2.9 4.5-5.2 9.3-5.1 14.9a12 12 0 0 0 11.4 12.1 34 34 0 0 0 16-3.1c6.7-2.7 7.3-2.5 11.5 3.4.8 1.1 1.5 2.3 2.4 3.3 2.2 2.4 2.1 4.4-.1 6.9-2.7 2.9-5.4 6-7.5 9.3-3.5 5.3-4.8 11.6-1.4 17 3.8 5.8 10.2 7 17 5.8l3.4-.7c11.3-2.4 11.2-2.4 16 8.2 1.4 3.1.8 4.9-2 6.4a31 31 0 0 0-9.7 8.6c-3.7 4.5-5.6 9.7-3.3 15.3 2.5 6 8 7.9 13.8 8.5 4.1.4 8.4.6 12.4-.4 3-.7 4.4.3 5.2 3l1.8 5.2c1.4 3.9.4 6.6-3.4 8.6-3.4 1.8-6.7 4-9.4 6.6-7.7 7.7-10.1 19.6 5.2 24.7 3.9 1.3 8 2 12.2 2.3 5.8.4 6.8 4.5 7.4 9 .6 4-.7 6.8-5 8.3a31.3 31.3 0 0 0-14.3 8.9c-5.3 6.2-4.7 13.1 1.5 18.4 4.5 3.8 10 5 15.5 6.7 4.8 1.4 8.8 9.8 7 14.5-.6 1.7-2.1 1.7-3.6 2-4.8 1.2-9.8 2-14.3 4.4-11.3 6.2-12 17.7-1.4 25.1 3.9 2.7 8.2 4.4 12.7 5.8 2.8 1 4.2 2.3 3.2 5.5-.4 1.4-.3 3-.4 4.5-.6 4.4-2.8 6.9-7.5 7.1-4.8.2-9.6.7-14 3-9.5 4.8-11.3 13.2-4.5 21.3 3.2 3.7 7.2 6.5 11.5 8.7 4.6 2.5 4.8 6.1 3.6 10.6-1 4.4-3 6.4-7.9 6.1-5.6-.3-11.3-1-16.7 1.5-8.8 4-11.3 11.9-6 20.1 2.4 3.9 5.8 6.8 9.3 9.6 3.2 2.6 5.5 5.2 3.3 9.8-2.7 5.6-5.3 7.6-10.7 6.6-4-.7-7.9-1.2-11.9-1-14.2.5-16 11-11.4 21.5 1.8 4 5 7.2 8.2 10 3.2 2.9 3.1 5.4.7 8.6-2.7 3.5-4.5 7.9-10.2 5.5-4.6-2-9.4-3.3-14.5-3.4-11.2-.1-16.7 7.1-13.6 18 1.4 4.8 3.9 9 7.1 12.6 3 3.1 2.6 5.7-.5 8.4-1.1 1-2 2.1-3 3.2-2.8 3.2-6 3.6-9.5 1.5a39.5 39.5 0 0 0-12.4-5c-11-2.3-17.8 3.8-16.8 15.1a34 34 0 0 0 5 14c2 3.5 1.7 5.8-1.8 8.4-7.4 5.5-7.3 5.7-14.7.2a38 38 0 0 0-8.8-4.8c-11.8-4.5-21.2 3-19.5 15.6.6 4.1 1.6 8.2 2.6 12.2 1.8 7.1-4.7 7.4-8.1 10.1-3.2 2.6-4.7-.6-6.4-2.4-3.8-4-7.7-8-13-10-9.3-4-17.7 1-18.6 11.1-.5 4.7-.6 9.3.4 14 .7 2.9 1.6 5.6-2.5 7.3-7.4 3.2-10.2 3.5-13-.3-2.6-3.3-4.7-6.9-8-9.7-10.2-8.8-20.4-5.9-24.3 7a26 26 0 0 0-1.1 14.3c.7 2.9-.4 4.5-3.2 5-1.6.4-3.3.7-4.8 1.2-4.6 1.6-7 .1-8.8-4.4a30.9 30.9 0 0 0-11.3-14.3c-5.3-3.7-10.4-3.2-15 1.2-5.2 4.9-6.4 11.4-7.5 18-.4 2.6.2 6.4-2.5 7-4.2 1.2-9 1.3-13.2-.2-1.5-.5-1.6-2.7-2-4.4A31.3 31.3 0 0 0 422 682c-6-6.9-13.6-7-19.8-.5-4 4.3-6.5 9.4-7.6 15-.6 3.7-2 5-5.8 5-9.8 0-10.4-.4-12-10.3a27 27 0 0 0-4.8-12c-5.2-6.8-12.3-7.7-19-2.1a38.6 38.6 0 0 0-9.3 12.9c-2.8 5.6-10.7 7.1-15.7 3.3-1.6-1.3-1.1-3-1.2-4.6-.5-6.3 0-12.7-3.3-18.5-4.5-8-11-9.7-18.8-4.9a31 31 0 0 0-10.1 11c-2.5 4.1-5.7 5.2-10.1 3.8-4.6-1.5-7.4-3.6-6.9-9.3.5-4.8 1.7-9.7.3-14.8-2.6-9.6-10.2-13.4-19.2-9.1a37.9 37.9 0 0 0-12.3 10c-1.5 1.8-2 5.7-5.9 3.4-3.6-2-7.6-4-6.6-9.3.2-1.4.6-2.6 1-4a31 31 0 0 0 .8-12.8c-1-9-7.5-13.3-16.3-11.2a31 31 0 0 0-15.3 9c-2.2 2.4-4 2.2-6.4.5-6.7-4.8-9-8.1-4.6-15.8a24 24 0 0 0 2.6-10c.8-11.3-6.7-17.6-17.7-14.9-4.7 1.2-9.2 3-13 6.1-2.7 2.4-4.8 2.5-7.5-.4-6.2-6.6-6.5-7.5-1.6-15.3a27 27 0 0 0 4.9-15c-.1-6.7-3.9-11-10.5-11.9-6.2-.7-12.2 0-18 3-2.6 1.3-5.2 3.4-8.1-.4-4.8-6.4-5.6-9-2.4-13.3 2.2-3 4.7-5.6 6.6-8.7 3.2-5 5-10.4 1.7-16-3-5.4-8.3-6.7-14.2-6.5-3.5.1-7 0-10.4.9-6 1.7-7.5.8-10.7-4.8-2.5-4.4-3.2-7.7 2.2-10.5 2.6-1.4 4.6-3.8 6.6-6 4.2-5 7-10.6 4.5-17-2.6-6.3-8.8-7.9-14.9-8.5-4-.3-8-.6-12 .5-2.5.7-4-.2-4.9-2.7l-1.8-5.2c-1.6-4-.7-6.9 3.5-8.9 4.8-2.2 8.6-5.7 11.8-9.8 5.8-7.1 4-15.3-4-19.8-5-2.7-10.3-3.3-15.9-3.3-3.2 0-6.7.7-7.2-4.5-1.2-10.7-1.4-10.9 4.6-12.8 4.9-1.6 9-4.3 12.7-7.8 7-6.6 6.3-14.7-1.4-20.4-4-2.9-8.5-4.5-13.3-5.4-6-1.2-10.6-10-8.3-15.5.8-1.9 2.6-1.9 4.2-2.2 6-1 11.8-2.4 16.7-6.3 7.7-6 8-14.2.5-20.7-4.3-3.7-9-6.9-14.9-7.6-3.1-.3-4.3-1.7-3.9-5.3 1-10.2 2-11.5 12.4-12 2.7-.1 5.3-.8 7.8-1.8 11.5-4.7 13.7-14.8 5-23.6a30.8 30.8 0 0 0-9.2-6.9c-4.9-2.1-5.9-5.7-4.7-10.6 1.9-8.1 1.8-8 10.4-8.1 5.1 0 10.3.9 15.2-1.7 7.3-3.8 9.6-10.2 6-17.7a36.3 36.3 0 0 0-10.7-12.2c-4.6-3.8-4.8-5.6-1.8-11.7 2-4.2 4.9-5.3 9.4-4.1a30.4 30.4 0 0 0 16.2.4c7.5-2.1 11-8 9.3-15.6a29.3 29.3 0 0 0-9.8-15.3c-3.6-3.2-3.2-5.9-.8-9.4 2.5-3.6 4.7-7 10-5 4.5 1.6 9 3.3 14 3.5 12.8.6 17-7.8 13.6-19.5-1.2-4.1-3.3-8.1-6.4-11.3-2.8-3-3-5.2 0-8.4 7.7-8.3 5.2-8.4 15.1-2.5 4.8 2.9 9.9 4 15.3 3.6 6.7-.5 10.6-4.6 11-11.3.4-6.7-1.4-12.9-5-18.5-2.3-3.5-2-5.9 1.5-8.3 3.5-2.4 6.6-6.3 11.3-2.3 3 2.6 6.4 4.8 10 6.5 12 5.9 21.2.2 21.4-13 0-4.4-.6-8.7-2.3-12.7-2.4-5.8 1.5-8 5.4-10.7 3.8-2.7 6.4-2 9.3 1.3 2.8 3.3 6 6.2 9.8 8.5 10.5 6.4 20.4 1.3 21.4-11 .4-5 .4-10-1-14.8-1-3.2.1-4.7 3-5.6 1.3-.5 2.8-1 4-1.7 4.5-2.3 7.6-1.1 10 3.2 2 3.7 4.7 6.8 8 9.5 9.6 8 21.1 3.5 23-8.9.6-4 1-8.2 1-12.4 0-3.3.2-5.9 4.3-6.5 4.3-.7 8.7-3.4 11.8 2.2 2.3 4.1 4.5 8.2 7.8 11.7 9.7 10 16.7 9 23.2-3.3a28 28 0 0 0 3.1-14.5c0-3 1.2-4.3 4.2-5 8.8-1.9 11.2-.7 14.3 7.8 1.6 4.4 3.6 8.6 6.9 12 5.7 6 12 6 17.9.2 4.3-4.4 6.8-9.8 8.4-15.7l1.4-5.1c2.8-.4 5.5-.4 8.7-.4M134 512.5c2.1 2.6 3.8 5.3 4.5 8.8 1.8 8.8-1.6 16-6.5 22.7-1.3 1.8-3.4 3.3-3.7 7 12.7-3.8 25.8-8 35.4 3.6 10 11.8 2.8 23.7-3.6 36 6.1-2.1 10.5-4.8 15.5-6 17.7-4.5 30.7 7.6 27 25.6-1 4.6-2.3 9-3.6 13.8 2.5.5 3.6-1.1 4.8-2 4.3-3 8.9-5.3 14-6.4 12.4-2.8 20.8 2.1 24.5 14.3 2 6.1 1 12.4.3 19.6 3.8-3.6 7.2-6.5 11-8.7 13.6-7.5 27.3-2 31.2 12.6a26 26 0 0 1 .9 10.4c-.4 2.8-1.2 5.8 1 9.2 3.1-3.5 5.8-7 9-10.1 5.3-5.4 11.8-8.7 19.7-7.5 9.8 1.5 17.7 11.8 18 22.8 0 3.2-.5 6.6 2.7 9.5 3.1-5.1 5.4-10.4 9.6-14.3 5.6-5.2 11.6-8.8 19.8-7 11 2.5 15 11 17.9 20.7.6 2.2 0 5 2.5 6.6 2.1-.7 2-2.7 2.7-4.1 2.1-4.5 4.2-9.1 7.5-12.9 6.9-7.7 16.5-9.7 24.8-5.1 7 3.8 10.7 10.3 13.5 17.4.6 1.6.2 4.2 3.1 4.5 1.8-1.6 1.8-3.8 2.2-5.9a33.7 33.7 0 0 1 8-16.4c7.4-7.7 17-8.7 25.7-2.5 5 3.6 8.7 8.2 11.8 13.4.7 1.1.9 3 3.2 2.8.4-3.5.7-7 1.4-10.3 2-8.9 5.1-17.4 14.8-20.3 9.6-2.9 17.7.8 24.5 7.6 2 2 3.5 4.4 5.3 6.6.7 1 1.2 2.2 2.7 1.6 1.5-.6 1-1.8.9-3-.2-4-.5-8-.3-12 .6-13.4 10.6-22 23.6-20.3 6.5.9 11.8 4.4 16.5 8.8 1.5 1.4 2.5 3.6 4.9 3.5 1.5-1.6.5-3 .3-4.5-.6-3.2-1.3-6.5-1.5-9.8-1.2-18.4 14-29 30.7-21.4 3.2 1.5 6.2 3.4 9.2 5 1.1.7 2 2 3.6 1.5 1.5-1.6.5-3.2-.3-4.6-3.1-6-3.6-12.3-3-19 .5-8.4 6-14.8 14.4-16.7 8-1.9 15.1.7 22.2 4 1.4.6 3 2 4.5.3 1.7-1.7 0-3-.8-4.4a40 40 0 0 1-6-13.1c-3.3-14.3 5.9-25.8 20.5-25.7 4.8 0 9.3 1 13.8 2.3 1.4.4 2.8 1.4 4.4-.6-2.5-3.3-5.3-6.6-7.4-10.2-6.6-10.9-6-28.1 10.3-32.5a42.7 42.7 0 0 1 16.8-.6c1.7.3 3.5 1.3 5-.5.2-2.3-1.8-3-3-4.4-2.2-2.2-4.6-4.3-6.5-6.8-10.1-13.3-6-28.3 9.3-34 4.1-1.5 8.5-1.5 12.8-1.5 1.8 0 4 .8 5.4-1.5-.7-2.2-2.8-2.8-4.4-3.9a41 41 0 0 1-10.4-10c-7.1-9.9-4.8-22 5.5-28.6 4.7-3 9.8-5 15.4-5.3 1.7 0 4.3.8 4.7-1.6.5-2.7-2.4-2.8-4-3.5-5.3-2.3-10-5.3-13.8-9.8a20 20 0 0 1 3-29.2c4.2-3.4 9-5.1 14-6.7 1.6-.6 3.7-.5 4.1-2.7-.5-2-2-1.5-3.3-1.8a33.6 33.6 0 0 1-18.1-9.8 19.4 19.4 0 0 1-1.4-25.2c3.4-4.6 8-7.4 13-10 2-1 4.5-1.4 5.5-4-1.6-1.9-3.8-1.7-5.9-2a33 33 0 0 1-17.4-6.9c-5.5-4.6-8-10.2-6.6-17.7 1.4-8.4 6.4-14 13-18.7 1.7-1.3 4.3-1.8 5.2-4.6-3.5-2-7.2-.8-10.7-1-9.5-1-17.9-4-21.8-13.4-3.8-9.1-.7-17.3 5.7-24.4 2-2.2 4.2-4.2 6.4-6.3.7-.7 1.5-1.4 1-2.6-.4-1.3-1.6-1.5-2.8-1.3-1.8.2-3.7.5-5.4 1a25 25 0 0 1-16.6-1.3 18.6 18.6 0 0 1-11.9-17.4 29.8 29.8 0 0 1 8.8-21.6c1.1-1.2 2.6-2.2 1.2-4.2-1.3-1.8-2.8-1.3-4.5-.7-3 1-6 2-9 2.7-13.8 2.9-25.5-4.3-27-16.7-1-7.3 1.5-13.8 5-20 1-1.7 3-3.2 1.7-6.1-11.6 5.8-23.7 12.2-35.2 1.8-11.4-10.3-6.8-23-2-34.9-2.6-1.5-3.6.3-4.9 1.2-3.9 2.8-8 5.3-12.7 6.6-13.8 3.9-25.6-3.3-27-16.5-.5-5.3-.4-10.6 1.2-15.8.4-1.4 1.4-2.9-.8-4.2-3.5 2.9-6.8 6-10.6 8.6-12.4 8.3-26.2 5.4-32.2-6.5a30.6 30.6 0 0 1-2.8-13.6c0-3.2.9-6.5-.7-10-3 2-4.2 5-6.4 7.2-6.8 6.6-14.3 11.7-24.5 9.3-10-2.4-13.7-10.2-15.7-19.2-.4-2.1-.4-4.3-.7-6.5-.3-1.8.1-4-2.8-5.2-3 3.9-4.8 8.6-8 12.3-11.3 13.1-28.2 11.3-36.1-4-2-3.7-3.5-7.5-4-11.7-.2-1.4-.2-2.7-2-3-2 .8-1.7 2.8-2.2 4.2-2 5.4-4.9 10.3-8.8 14.5a19 19 0 0 1-24.5 3.5c-6.2-4-9.6-10-12.4-16.5-.7-1.8-.6-4-2.9-4.9-1.8.6-1.4 2.2-1.6 3.4a35.5 35.5 0 0 1-11.6 22c-5.2 4.6-10.8 5.7-17 2.9-7.5-3.4-12.8-9-16.8-16-.9-1.4-1.2-3.5-4.3-3.5-.4 3.7-1 7.4-1.3 11.1-1.2 13.7-11.7 22.7-24.3 20.5a28.7 28.7 0 0 1-18-12.4c-1.2-1.6-1.9-4-4.7-4 0 4.9.2 9.5 0 14-.6 14.4-9.8 22.9-23.5 21.5-6.2-.7-11.2-4-15.8-8-1.7-1.6-3-4.1-6.3-3.6.7 4.7 1.5 9.2 1.9 13.8 1.2 15.2-7.7 24.4-22.8 23.9-6.1-.3-11.1-3.3-16.1-6.3-1.5-.9-2.5-2.8-4.7-2.2-.7 1.6.4 2.7.9 3.8 2.6 6 3.8 12.4 3.5 19-.5 9.4-7.9 17-17.2 17.6-7.2.6-14-.8-20.2-4.2-1.2-.7-2.4-2.1-4.2-.7-.4 1.6.9 2.7 1.5 4 2 3.8 4.2 7.5 5.4 11.7 3.6 12.9-2.6 24.7-14.4 26.9-6 1-12 .7-17.8-1.4-1.8-.6-3.8-2.2-6-.4.3 2 1.7 3 2.8 4.2 3.3 3.8 5.7 8.2 7.3 13 4.2 13.1-2.3 24.2-15.9 27-4.2.8-8.5 1-12.8.2-2-.4-4.2-1.2-6.1-.2-.7 2.2 1 2.8 2 3.8 2.5 2.6 5.4 5 7.5 8 10.6 14.1 4.5 31-12.5 34.6-3.7.8-7.7.4-11.5.5-1.4.1-3.2-.3-3.8 1.6-.7 2.2 1 3 2.4 3.8 4.5 2.7 8.4 6.1 11.7 10.1 8.5 10.3 6 24-5.5 30.9a35.2 35.2 0 0 1-15.2 4.6c-1.5.2-3.5-.4-4 2.5A48.4 48.4 0 0 1 84.6 318c7.8 7.6 9 18 2.8 26.2a32 32 0 0 1-16.8 11c-1.8.6-4 .5-5.2 2.6.7 2.6 3 2.4 4.7 3 5 1.4 9.8 3.3 14 6.6 9.2 7.4 10.8 17.5 4.2 27.4-3.6 5.5-9 8.7-14.7 11.7-1.3.7-3.4.5-3.7 2.7.9 2.1 2.8 1.4 4.3 1.5 6 .4 11.5 2 16.6 5 6.5 4.2 10.1 9.9 9.7 18-.6 10-7.4 15.5-14.2 21.2-1.4 1.2-4 1.3-4 4.1 2.3 1.3 4.8.6 7.2.6 5.1 0 10 1 14.6 3a19 19 0 0 1 11.3 24 30.6 30.6 0 0 1-8.4 13.5c-1.8 1.8-4.2 3.1-5.5 6.6 11.5-.9 22.8-3.4 32.5 5.8z"
     id="path2" /><path
     d="M563.3 96.6c66 41.3 109.8 99 131.3 173.5a279 279 0 0 1 10.4 97.7 291 291 0 0 1-93 197.7 296.2 296.2 0 0 1-496-176.7c-11-96.3 16.7-179.9 84.9-249a283.6 283.6 0 0 1 158-81.8c72.6-12.3 140.7.8 204.4 38.6M422.4 637.7c13.4 0 26.6-1.8 39.7-4.3 57-11 107-36 148-76.9 67.9-67.3 96-149.2 85.3-244A262.7 262.7 0 0 0 655.8 200C600.9 113.7 522 67.7 420.2 61.5a258.3 258.3 0 0 0-71.8 6.4c-63 14-116 45-157.5 94.2-61 72-82.5 155.4-63.2 247.6 18.4 87.7 69.2 152.7 148 195.3a278.3 278.3 0 0 0 146.7 32.7z"
     id="path4" /><path
     d="M432 184.2a65.9 65.9 0 0 1 24.1-32.1c6.3-4.4 6.3-4.4 2.8-11.3l-1.8-3.3-12.4 14.7-34 40.6c-1.9 2.2-2.1 4-1.2 6.8 2.3 7 1.3 13.6-3.8 19-2.3 2.5-2.4 4.4-.4 7 1.2 1.5 2.3 3.2 3.3 5 1.6 3.1 4 4.5 7.6 4.1 2.3-.2 4.4 0 4.4 3.3 0 3.2-1.4 4.5-4.6 4.3-3-.2-6 .1-9 0-2.2-.2-5.2 1.1-6.1-2.5-1-3.6 1.2-5.1 4.5-5.7l-1.9-3.5c-2.2-4.7-5.2-7-11.1-6.4a16 16 0 0 1-17.8-11.7c-1.7-5-5.1-4-8.6-4.2-4.3-.3-3.8 3-4.3 5.4a59.4 59.4 0 0 1-117 .5c-.5-3.8.2-8.3-6-8.2-2 0-1.9-2.5-1.7-4.1a66.2 66.2 0 0 1 56.8-61.3 65.5 65.5 0 0 1 53.3 15.8c2.4 2 3.9 2.1 6.3.1 8.7-7.1 8.8-7 4.3-17.2-1-2.4-2.6-4.7-3.3-7.3-2.3-9-9.5-12.1-17.3-14.6-1.1-.3-2.4-.5-3.3-1-2.6-1.7-5.4-3.8-4.8-7 .7-3.5 4.3-2.5 6.8-2.5 12.1.3 24.2-1.5 36.4-.3 2.3.2 5.3 0 5.5 3 .2 3-2.8 3.4-4.9 4.2-1 .4-2.3.5-3.4.8-8 2.5-10.8 8.7-7.3 16.2l17.2 37.2 2.7 5.6a143.1 143.1 0 0 0 59.6-58c2-3.7 2.5-7 .1-10.7-1-1.5-1.6-3.2-2.4-4.9l-.8-1.8c-1.3-3.3 6.8-19 10.2-19.9 3.2-.8 5.8.5 7 3.3 1.4 3.1 1 6.3-2.2 8.3-1.2.7-2.7.8-3.7 1.7-2.5 2-4.3 4.3-2.4 8l20.1 42c1.4 3 3.2 2.6 5.7 1.7a66.8 66.8 0 0 1 45.4.9c4.2 1.5 7.3 3 4.1 7.8.8 1.8 2.3 2.3 3.6 3.1a59 59 0 0 1-20 107.1 59 59 0 0 1-71.3-50.5c-.6-4.2-2.2-5.7-6.1-5.8a51 51 0 0 1 3-21.7m104.8 43c4.7-9.8 7-19.9 5-31a48.8 48.8 0 0 0-60.2-38.6c-3.5.9-5 2.5-3 6.4 5 9.8 9.6 19.7 14.4 29.7 1 2 2 3.4 4.4 4.2 5 1.8 7 6.4 5.4 10.8a8.7 8.7 0 0 1-11 5.3 8.3 8.3 0 0 1-5.1-10.9c.8-2.5.5-4.4-.6-6.6l-13.6-27.8c-.9-1.9-1.4-4.1-3.7-5.1-2.2.5-3.9 2-5.5 3.3a47.8 47.8 0 0 0-16 51.1 46.2 46.2 0 0 0 39.5 34.3c21.5 3 38.3-5.8 50-25.1m-195.3-19h-24c-3.4 0-6.3.2-9 3-2.8 2.6-6.4 2.8-9.7.6a8.3 8.3 0 0 1-3.9-9.1c.7-4 3.7-6.8 7.2-6.5 5.3.4 8.2-2.8 11.6-5.6L334 173c1-.9 2.2-1.5 2.3-3.1-.5-1.7-2-2.6-3.3-3.6a48.4 48.4 0 1 0-35.2 86.4 49 49 0 0 0 52-34.2c3-10.2 3.1-10.2-8.4-10.2m66.9-42.5c-7 5.8-15 10.3-22.6 15 .8 4.5 2.5 7.1 7.4 6.6 1.8-.2 4.1.3 5.7 1.3 3.5 2.1 5.3.5 7.4-2.1l43.2-51.8c4.6-5.5 4.2-9.2-1.7-14.5a150 150 0 0 1-39.4 45.5M350.5 193c-2-6-3.7-12-8.5-17l-27.2 23.6c10.5 1.1 20.3 1.1 30.1 1.1 7 0 7 0 5.6-7.7m13-14.9a80.6 80.6 0 0 1 5.8 19.6c.2 1.1.3 2.3 1.7 2.7 1.2.3 2.2 0 3.1-1 6.7-7.2 7-9.6 3-18.6l-4.1-8.6-7.4-15.6c-3 1-4.3 3.5-6.4 4.7-3.3 2-3.8 4-1.3 7.2 2.2 2.6 3.6 6 5.7 9.6zM137.8 388.6c0-30.6 0-60.7-.2-90.9 0-4 1-6.1 5.2-6.6 16.6-1.8 33.2-3.3 49.6.7 16.2 3.9 24.4 15.8 22 31-1 6.4-4.8 10.9-10 15 4.7 2.9 9.3 5.2 11.8 10 7.3 14.2 5.2 37.3-19.2 44.4-13.7 4-27.7 3.5-41.6 2.6-4.3-.3-8.6-1-12.9-1.6-2.4-.3-4.6-1-4.7-4.6m57.6-24.7c.3-7.5-2.6-11.4-9.8-13.4-6.9-1.9-13.9-1-20.9-1.1-2.6-.1-3.4 1.4-3.4 3.8v18c0 2 .7 3.4 3 3.7a51 51 0 0 0 22.7-1.7c4.2-1.3 7.3-3.8 8.4-9.3m-3.8-44.4c-.4-5.4-3.5-8.2-8.6-9.5-4.6-1.2-9.3-.8-14-.8-7.6 0-7.6.1-7.7 7.6 0 15.2 0 15.2 15.4 13.8 9.8-.9 12.8-3 15-11zM288.3 280l8.3-1.3c3.9-.7 5.4.6 5.4 4.7V341.5a151 151 0 0 0 17.3-19.3c4-5.5 8.6-8.2 15.6-7.4 5.4.5 10.8 0 16.6.8a309.4 309.4 0 0 1-30.2 34c12.5 13.3 23.6 27 31.8 43.3-4 2.2-7.9 1.2-11.5 1.2-17.4-.2-12 2.6-21.6-11.6a106 106 0 0 0-18-21.5v23c0 11.6.3 10.1-10.4 10.2-13 0-13 0-13-13v-89.9c.1-10.5-1.5-9.1 9.7-11.3zM355.7 358.8c-.6-9.9.6-19 5.4-27.4a37.6 37.6 0 0 1 42.2-17.2c15.6 3.8 25.3 16.4 26 33.6v9.5c.3 4-1.4 5.1-5.3 5h-39.4c-1.6 0-3.4-.4-4.7 1 1 6.8 7 11.8 15.2 12.4a57 57 0 0 0 22.7-2.2c2.7-1 4.3-.7 4.7 2.7.3 3.8 1.2 7.6 1.8 11.3.4 2.5-.3 4.2-3 5-14.1 4-28.4 5.8-42.6.5-14-5.3-22.5-17.9-23-34.2m50.4-17.3c-3-7-8.5-10.2-15.3-9-6.4 1.1-10.5 6-10.6 13.4h23.7c2.5 0 3-1.6 2.2-4.4zM497 290.6c16.8 0 33.1.2 49.5 0 4.6-.1 6.3 1.4 5.9 6-.3 2.7-.4 5.6 0 8.4.5 5-1.8 6.3-6.4 6.2-11.5-.3-23 0-34.4-.1-3.8 0-5.6 1.1-5.3 5.1.3 3 .4 6 0 9-.5 5 1.8 6 6.1 5.8 9.7-.2 19.3.2 29 0 4.5-.2 6.4 1.4 6 6-.3 3.3-.2 6.7 0 10 .2 3.4-1.1 4.6-4.6 4.5-10.2-.2-20.4 0-30.5-.2-4.4 0-6.2 1-6 6 .3 10.2-.2 20.6.2 30.9.1 5-1.6 6.4-6.4 6-4.3-.3-8.6-.1-13 0-3 0-4.5-1-4.5-4.3v-95c0-3.2 1.2-4.4 4.4-4.3 3.2.2 6.3 0 10 0zM446.2 517c-13.5-1-24.7-5.3-30-18.4a42 42 0 0 1 2.1-37.5c5.8-10.5 16.8-14.7 30.6-12.4 5.9 1 5.9 1 5.9-5.1 0-5.8.2-11.7 0-17.5-.1-3.4 1.5-4.8 4.5-5.3 3.5-.5 7-.8 10.3-1.6 3.7-1 4.8.5 4.8 4V456c0 17.3-.2 34.6 0 52 0 3.7-1.2 5.6-5 6.4-7.6 1.4-15.2 2.2-23.2 2.6m8.6-44.3c0-3 .5-6-3.5-7.3-10-3.2-17.4 1.7-18 12.2-.2 2.3-.2 4.6 0 7 .5 11 6.1 15.9 17 15.3 3.3-.2 4.6-1.5 4.5-4.9v-22.3zM615.5 337.4c-5-7.2-9.8-14-15.2-22 8.7-.9 16.3-.8 23.8-.1 2 .1 2.7 2.3 3.7 3.8l12.4 19c4.2-6.4 8.2-11.8 11.5-17.7 2.5-4.4 5.6-6 10.5-5.6 5 .5 10.2-.4 15.3.6.8 2.4-.9 3.6-1.9 5-6.5 9.3-13 18.6-19.7 27.7-2.6 3.5-2.9 6 0 9.5a242 242 0 0 1 20.6 29.5c1 1.8 2.3 3.6 2.7 6.4-7.6 1.2-15 .7-22.4.4-2-.1-2.6-2.4-3.5-4-4-7.2-8.3-14.3-13.7-21.3-5 4.7-8.4 10.4-11 16.1-3.4 8-8.7 10.9-17 9.5-3.4-.5-7 .5-10.3-.5-1.3-2.4.4-4 1.4-5.5a265.1 265.1 0 0 1 21.7-31.8c2-2.4 1.8-4.1 0-6.5-3-4-5.8-8-8.9-12.5zM195.8 507.5c1.6-4.2 2-9.2 4.8-11.6 3.2-2.8 7 2 10.9 2.5 6 1 11.8 2 17.8.8 4-.8 7.5-2.4 7.8-7.1.4-4.3-2.1-7-5.6-8.6-4.9-2.2-9.9-4-14.8-6-2.3-1-4.6-1.9-6.8-3a23.6 23.6 0 0 1-13-26.2c1.4-10.1 9.9-18.3 21.2-20.5 11-2.1 21.5-.9 31.8 3.1 3.3 1.3 4.6 3 2.9 6.4-1.7 3.4-1.5 8.3-4.5 10.3-3.1 2.1-6.6-1.7-10.1-2.3a34.5 34.5 0 0 0-15.3-.2c-2.8.8-5 2.2-5.5 5.2-.5 3.2.8 5.7 3.4 7.2 2.7 1.6 5.6 2.9 8.5 4.1 4.4 2 9 3.5 13.4 5.5 11.7 5.6 16.8 14.5 15.5 26.9-1.1 11.5-8 18.7-20.8 21.6a63 63 0 0 1-37.6-3c-2-.8-4.8-1.4-4-5zM583.6 529.5c-7.2 9.2-20.4 10.3-31 7-1.6-.5-3-1.3-2.8-3 .7-4 1.3-8 2.6-11.7.9-2.6 3.5-1.2 5.2-.7 5.1 1.2 9.6.7 13.3-3.4 2.5-2.9 3.3-5.6 1.4-9.5-8-16.3-14.9-33.1-20.1-50.5-.7-2.4-2-4.6-1.2-8h17.2c2.4.1 2.6 2.2 3.2 4L581 484c.5 1.7 1.3 3.3 2.2 5.5 3-4.2 3.7-8.8 5-13 2.3-7.4 4.5-14.7 6.2-22.1 1-4 3-5.2 6.7-4.9 4.6.4 9.2-.5 14 .6-.3 5.3-2.5 9.8-4 14.5a413.8 413.8 0 0 1-20.7 53.5c-1.8 4-4 7.7-7 11.3zM520 516.4c-6.5 0-12.5.4-18.4-1.2-10.2-2.8-15-9.5-15-20.7 0-10 5-16.2 15.2-18.8a42 42 0 0 1 18.2-1.4c4.3.8 5.3-.6 3.6-4.5-1.6-4-4.8-5.2-8.7-5.5-6.5-.5-12.9.4-19.1 2-2.5-4.2-2.2-8.5-3-12.4-.5-2.4 1-3.4 3-3.8a67.1 67.1 0 0 1 26.7-1.8c13.9 2.7 20.3 9.9 20.7 23.9.3 12.3 0 24.6.1 37 0 3-1 4.6-4 5-6.3 1-12.5 2.4-19.3 2.2m-1.7-14.8c6.6-.7 7.2-1.9 6.4-10.3-.2-2.3-1.3-3.4-3.3-3.7-3.8-.5-7.7-.5-11.3.9a6.4 6.4 0 0 0-4.4 6.6c.1 2.8 1.9 4.9 4.8 5.6 2.3.6 4.6 1.1 7.8 1zM376.4 448.2c16.4 2.4 23.8 10.8 23.9 27 .1 11.7-.1 23.4.1 35 0 4-1.3 5.3-5.2 5.2-17-.4-14 2.5-14.3-14.1-.2-8.7 0-17.4-.3-26-.2-8.1-4.6-11.4-12.3-10.6-3.9.4-5.4 2-5.3 6 .3 12.8 0 25.6.2 38.5 0 4.8-1.5 6.3-6.3 6.2-13.2-.1-13.3 0-13.3-13.2v-45.4c0-4 1.3-5.6 5.2-6.3 9-1.6 18-3.4 27.6-2.3zM277.1 449.7c12.2 0 12.1 0 12.3 11.9.2 9.6-.9 19.3.8 28.9 1.4 8 7.9 11.9 15.5 9.1 2.6-1 2-3.2 2-5 0-13 .2-26 0-39-.2-4.4 1.1-6 5.8-6 13.8 0 13.8-.1 13.8 13.5 0 14.8-.1 29.7.1 44.5 0 4.1-1.4 6-5.4 6.7-9.5 1.6-19 3.2-28.7 2.1-13-1.5-21-9-22.5-22-1.5-13.5-.6-27-.8-40.5 0-5 3.5-4.2 7.1-4.2zM589.2 369v20.5c.1 3.4-1.2 4.8-4.7 4.7h-14.4c-3 0-4.3-1.4-4.3-4.3V319c0-3 1.3-4.2 4.2-4.1 4.3 0 8.7.2 13 0 4.7-.4 6.4 1.3 6.4 6.2-.3 15.8-.1 31.6-.2 47.9zM235.7 352c0-10.8.2-21.2 0-31.5-.2-4.4 1.5-6 5.8-5.7 4.5.3 9 .2 13.5.1 2.9 0 4.2 1.2 4.2 4.2v71c0 3-1.4 4.1-4.3 4.1-4.6 0-9.3-.2-14 0-3.8.2-5.3-1.3-5.2-5.2v-37zM382.9 597l1.4-4.2c.9-3.3 2.6-3.7 5.6-2.4 4.6 2 9.6 2.7 14.6 2.2 3.1-.3 6.1-1.4 6.8-4.9.6-3.3-2-5.1-4.6-6.3-3.2-1.5-6.5-2.7-9.7-4-10.4-4.1-15.5-11.3-14-19.7 1.6-9.5 9-15.4 20-16 5.3-.3 10.3.6 15.3 2 4.2 1.2 5.5 3.1 3.8 7.6-1.8 4.4-3.2 7-8.4 4.2-3-1.6-6.8-1.4-10.3-1-2.3.2-4.7.8-5.2 3.7-.5 2.7.9 4.6 3.2 5.7 4.6 2.1 9.5 3.9 14.1 6.1 8.7 4.2 12.1 10.9 10.7 20.4-1.1 7.3-6.7 12.2-15.5 14-8.6 1.8-16.8.7-25-2.1-2.4-.8-4.5-1.9-2.8-5.4zM441.7 597.9a127 127 0 0 1 15.9-42.7c-7.3 0-13.6-.2-19.8.1-5 .2-5.2-2.6-5.2-6.3 0-3.9.4-6.4 5.3-6.2 10 .2 20 0 30 .1 2.4 0 6-1.5 7 1.7 1 3.4 1.4 7.2-1.1 10.5a98.1 98.1 0 0 0-16.9 37l-.8 4.9c-1.3 7.3-1.3 7-8.8 7.3-4.7.2-6.5-1.4-5.6-6.4zM350.2 587.6c-.2 3.4 1.6 4 4.1 4h17.5c3.5-.2 4.6 1.2 4.6 4.6 0 8 .2 8-7.8 8h-28c-3.5 0-5-1.2-5-5V548c0-3.6 1.1-5.3 4.8-5h4c4.5-.5 5.8 1.6 5.8 5.8v38.9zM577 279.7c9.4.8 14.8 6.5 14.2 14.4-.6 8-6.8 12.9-15.6 12.2-5.9-.4-10-4-11.5-10-1.3-5.3.7-11.2 5.1-14 2.3-1.5 4.7-2.6 7.9-2.6zM246.2 306.4c-8-1.2-12-5.3-12.5-12.4a13 13 0 0 1 9.8-13.8 14 14 0 0 1 16 6.4c3 5.7 1.6 12.7-3.1 16.8-2.8 2.5-6.2 3.2-10.2 3zM539.6 579.9c2.2 2.3 0 3.4-1.2 4.3-4 3-8.5 3.2-12.6.4-3.9-2.8-8-3.5-12.6-3.3-6.2.2-12.3 0-18.5 0-3.2 0-5.7-1.4-5.7-4.8s2.6-4.7 5.7-4.8c6.8 0 13.7-.1 20.5 0 3.6.1 6.6-.7 9.4-3.3 4.8-4.3 10.7-3.8 14.4 1-2.7 2.2-9.4 1-6.8 8 1.7 4.5 4.7 1.6 7.4 2.5zM274.2 577.4c2-2.8 1-5.5-.5-7.5-1.6-2.1-4.8.4-7-1.3 1.5-5 7.1-8.4 11.7-5.3 9.4 6.3 19.5 3.7 29.4 4.4h5c3 .2 5.3 1.6 5.3 4.8 0 3.2-2.4 4.7-5.3 4.7-6.5.2-13 .2-19.5 0-4.5 0-8.3.5-11.8 4-4.3 4-10.4 2.9-13.1-1.6 1.5-1.4 3.6-1.4 5.8-2.2z"
     id="path6" /><path
     fill="#9fcac3"
     d="M384.7 690.5c-.5-1.3-.9-2.7-.9-3.1 0-2.7-4.3-11.5-7-14.6a19.7 19.7 0 0 0-15.3-6.9c-8.6 0-15.8 5-22.2 15.4-2.1 3.4-3.6 5-4.2 4.4-.4-.5-1.1-3.8-1.5-7.4-.8-7.8-2.3-11.8-6.3-16.3A18.4 18.4 0 0 0 312 655c-7.2 0-13 3.2-19.7 10.8-2.6 3-5 5.4-5.4 5.4-.4 0-.7-3.4-.7-7.5 0-9-1.7-15.2-5.5-19.8-7.8-9.3-21.6-9-33.6.8l-3.7 3 .4-6c.8-11.4-3.4-21.6-10.4-25.2-7.4-3.7-19.3-1.9-28.8 4.4a16.1 16.1 0 0 1-4.3 2.4c-.1-.2.6-3.7 1.6-7.8a67 67 0 0 0 1.8-12.1 22 22 0 0 0-8.8-17c-3.7-2.5-4.5-2.7-12.2-2.7-7 0-9 .4-13.9 2.6a20.8 20.8 0 0 1-6 2c-.3-.2.3-2 1.3-3.8 5-10 6.1-19.8 2.9-26.2a25.4 25.4 0 0 0-12.6-10.9c-4.7-1.3-11.4-1-18.4.9-3.5.9-6.5 1.5-6.6 1.3-.2-.2 1.4-3 3.7-6.4 5.1-7.8 6.3-11.6 5.9-19-.5-8-3.3-12.5-10-16-4.4-2.3-5.4-2.5-15.6-2.5-7.2 0-10.6-.3-10.1-.9l5.2-5.7a26.3 26.3 0 0 0 8-20.5c-.7-11.5-9-18-24.4-19-4.6-.3-8.7-.8-9-1.1-.4-.3 1.1-1.8 3.3-3.3a53.2 53.2 0 0 0 12.2-12.5c3.4-6.2 3-15.7-1-21.4-3.9-5.8-15-11.1-23.2-11.1-4.8 0-4.3-1.8 1-4.3a36 36 0 0 0 15.2-14c2.4-5.3 2.5-12.8.2-17.4-3.3-6.4-9.3-10.7-19-13.7-2.7-.8-4.9-2-4.9-2.7 0-.7 2.5-2 5.5-3 12-4.2 19.2-12.6 19.2-22.4 0-9-5.8-16.6-16.8-22.3a21.4 21.4 0 0 1-5.6-3.5c0-.7 1.4-1.1 7.6-2.1 12.5-2 21-10.9 21-22 0-8.2-4.8-15.5-14.7-22.4-6-4.1-5.5-5 4.2-5.7 13.4-1 21.4-6 24-15.5 2.4-8.3-.7-17-9.1-25.6a106 106 0 0 1-5.2-5.6c0-.1 4.5-.2 10-.1 8.5 0 10.8-.2 14.2-1.8 8.2-3.9 12-9.6 12-18.4-.1-6.9-3-14-8-20.3-3.8-4.5-2.8-5.6 2.7-3.3 4.9 2 16.7 2 21.5 0 7.8-3.3 11.6-9.4 11.6-19 0-5.6-.4-7.2-3.8-14.2a33 33 0 0 1-3.3-8.4c.3-.3 1.6.1 3 .9a32.7 32.7 0 0 0 27.8 2c6.8-3.4 10-9.2 10-17.9 0-6.3-1.5-13.5-3.5-17.4-1.7-3.1-.5-3.2 4.1-.3a28 28 0 0 0 16.7 5.6c7.6 0 12.2-1.6 16.4-5.8 5.6-5.6 7-12.6 4.8-25.5-.5-3.1-.7-5.9-.5-6.1.3-.3 2.7 1.4 5.3 3.6 6.7 5.8 11.5 7.8 18.6 7.8a20 20 0 0 0 15.4-6c4-4.2 5.4-8.8 6-19.4l.4-9.7 5.4 6c6.7 7.4 12.1 10.2 19.8 10.3 13 0 20.2-8.4 21.7-25 .3-3.5 1-6.4 1.3-6.4.4 0 2.4 2.3 4.3 5.2 14.1 20.7 32 20.4 41.7-.7a40 40 0 0 0 2.9-8.8c.7-4.6 1.9-5.6 3-2.4 4.2 10.8 11.3 19.2 17.8 21 8.3 2.3 15.3.2 21.4-6.5a41 41 0 0 0 8.7-15.2c.4-1.4 1-2.5 1.5-2.5s1 1.1 1.4 2.5c1.6 7 2.4 9.1 5 13.7a23.6 23.6 0 0 0 14.8 11c9.3 1.5 17.5-3 24-13 2.5-3.8 5-6.8 5.5-6.7.4.2 1.4 3.5 2 7.4 1.5 9.3 5 16.1 9.9 19.6 3.2 2.2 5 2.7 10 3 5.4.3 7 0 11-2 4.6-2.2 11.3-8 14-12 .6-1 1.5-2 2-2 .3 0 .8 4 1 8.9.4 11.5 3.3 17.9 10 22 8.9 5.5 19.3 3.8 30-5 3.1-2.4 5.9-4.3 6.2-4 .2.2 0 2.6-.7 5.1a38.6 38.6 0 0 0 1.8 21.3c6 11.7 21.3 13.2 36.2 3.8 2.4-1.5 4.6-2.7 5-2.7.4 0-.3 2.9-1.5 6.5-3 8.4-3 16.6-.4 21.8 2.4 4.6 8 9.7 12.3 11.1 5.2 1.7 13.4.7 21-2.6 3.6-1.6 6.7-2.7 6.9-2.5.2.2-1.1 3.2-2.9 6.7-7.5 14.6-4 28.8 8.4 34 4.5 1.9 14 1.6 20.9-.5 5-1.6 6-1.7 7-.6 1.2 1.1 1 1.7-1.5 4.5-9.6 11-10.7 26.5-2.5 34.4 5.8 5.6 16 7.8 25.3 5.4 6.9-1.7 7 0 .5 6.8-6.8 7.1-9 11.7-9 18.8-.1 13 9 20.9 24.8 21.6 8.4.4 8.3.4 8.3 1.2 0 .4-2.3 2.4-5.2 4.4-13.3 9.4-16.7 25-7.5 34.6a30 30 0 0 0 16.8 8.3c3.8.7 7.2 1.5 7.4 1.7.7.8-1 2.2-5.4 4.6-7.2 3.7-10.9 7-13.6 12-2.3 4.1-2.5 5.4-2.2 10.8.3 5.1.8 6.9 3 10 3.4 5 9.8 9.3 16.8 11.4 3 1 5.6 2.1 5.8 2.6.2.5-2.3 1.8-5.5 2.9-11 3.7-17.4 9.6-19.3 18.2-2.4 10.7 4.9 21.8 18.2 27.5 2.5 1 4.1 2.3 4 3-.3.6-2.8 1.3-5.8 1.7-9.7 1-18.3 6.3-22 13.4-2 4.1-2.2 12-.3 16.5a50.3 50.3 0 0 0 13.6 14.9c1.7 1 3 2.3 2.7 2.9-.2.6-3.5 1.2-8.3 1.5-9 .6-13.4 2.4-18 7.3-9 9.2-7.3 21.4 4.3 33.5 3 3.2 5.2 5.8 4.7 5.9h-9c-10.8-.3-16.7 1.3-21.1 5.9-4.2 4.3-5.4 7.4-5.4 13.9 0 7.8 1.4 11.2 9.6 22.7 1.4 2 .2 2.2-5.4.8-3.3-1-8-1.3-12.2-1.1-5.6.2-7.5.7-11.1 3-6.1 3.8-9 9.4-9 17.6.1 5.2.6 7 4 13.8 2 4.3 3.5 8 3 8.5-.4.4-3.7-.5-7.4-2-14.2-5.8-26.2-2.9-31.6 7.7-2.6 5-2.5 17.5 0 23.4 1.8 4 2.5 6.8 1.6 6.8l-8-4.1c-12.4-6.6-21.2-6.4-28.9.6-5.4 5-7 10.3-6.4 20 .4 4 .9 8.3 1.2 9.7.8 3.6-1 3.1-6.5-2-5.5-5-11-7.2-18.3-7.2-6.4 0-10.6 1.7-14.7 6-4.2 4.3-6 10.1-6 20.6 0 4.6-.2 8.4-.6 8.4-.4 0-2.3-2-4.2-4.6-6-7.8-13-11.6-21.4-11.6-12.8.1-19.4 7.5-22.2 24.9a59 59 0 0 1-1.2 6.2c0 .2-1.9-2.3-4-5.5-9.9-15-23.4-19-34-9.8a30.6 30.6 0 0 0-9.8 16.9c-.9 3.4-2 6.3-2.6 6.5-.5.2-1.9-2-3-5-2.4-6.9-7.1-12.9-12.4-16-3.5-2-5.3-2.5-10-2.4-9.7 0-15.5 4.5-21.6 16.6-2 3.9-3.8 7-4 7-.3 0-1-1-1.4-2.2zm61-46.5a318.6 318.6 0 0 0 78.5-20.7A316.8 316.8 0 0 0 595 581a400 400 0 0 0 46.5-46.5c36.3-45.6 56.6-96 63-156 1.5-15 1.7-43.5.4-57.1a305.4 305.4 0 0 0-60-152.4 386.5 386.5 0 0 0-52.1-52.4 310.6 310.6 0 0 0-104.6-53 268 268 0 0 0-84.2-10c-27.9.7-47.2 3.3-71.6 9.7-65 17-119.3 54.2-161.8 111-47.3 63.2-65.8 139.4-54 222 7.2 49.4 27.7 95.8 61.8 139.7a411 411 0 0 0 47.6 46.9 302.7 302.7 0 0 0 157.8 62.3c13 1.1 49.4.4 61.9-1.2z"
     id="path10" /><path
     fill="teal"
     d="M433.8 685.8c-3.8-8.1-7.3-12.2-13.2-15a15 15 0 0 0-10.2-2c-9.6.9-14.7 5-20.8 17-1.5 2.9-3 5.2-3.5 5.2s-1.3-1.7-1.9-3.8c-1.4-5.3-5-12.3-7.8-15.4a22.6 22.6 0 0 0-23.3-4.5c-4 1.7-10.1 7.4-13.8 13.2-1.5 2.3-3 4.2-3.5 4.2-.4 0-1-1.7-1.3-3.8-2-13.3-4-17.6-10.8-22.8-3-2.2-4.4-2.6-10.3-2.8-8.6-.4-12.2 1.2-20.8 9.5l-6 5.9v-6.3c0-17.1-7.5-27.2-20.3-27.2-7 0-12.2 1.8-18 6.2l-4.6 3.5.4-5.1c.6-5.9-1.4-15-4.3-19.5-5.5-9-18-10.3-31.7-3.6-3.5 1.7-6.4 3-6.6 2.8-.2-.2.3-4 1.2-8.5.8-4.5 1.3-9.8 1-11.8a24.9 24.9 0 0 0-8-14.6c-3.2-2.5-4.1-2.8-11.3-3-6.6-.3-9 0-14.4 1.9-5.7 2-6.4 2-6 .7l2.8-7.8c4.8-13.3 2.1-22.4-8.5-29.2-3.5-2.3-4.8-2.6-10.7-2.6-3.8 0-9 .6-11.7 1.3-2.7.7-5 1.2-5.2 1-.2-.2 1.3-3 3.3-6.5 4.6-7.5 5.8-11.8 5.2-18.3-.6-6.4-2.8-11-6.6-14-4.8-3.7-9-4.7-19.5-4.7h-9.7l4.5-5c7.7-8.4 10.4-16.8 8.3-25.3-2.4-9.4-9.1-13.9-23.8-15.7l-8.6-1.1 6.9-6.2c4-3.7 7.5-7.8 8.5-10 1.9-4.1 2.1-12.7.5-17.3-2.5-6.8-11.6-12.7-22.1-14.4-3.1-.5-5.8-1.1-6-1.4-.3-.2 1.5-1.4 3.9-2.6 5.9-3 12.5-9 14.7-13.4 2.4-4.6 3.2-12 1.7-16.3-2.2-6.8-10.3-13.1-20.8-16.6-1.9-.6-3.4-1.4-3.4-1.8 0-.4 3-2 6.8-3.6 11.6-5.1 16.9-11.7 17-21.5 0-9.5-4.6-16.1-15.6-22.5-3-1.7-5.5-3.3-5.5-3.6 0-.4 2.4-1 5.4-1.7 10.8-2.1 17.2-6.6 20.6-14.6 4.2-9.7.5-19.6-10.6-28.7-3.6-3-6.4-5.5-6.2-5.7l8.3-1.3c9.9-1.2 15.8-3.7 19.7-8.2 7.7-9 5.9-21.5-4.9-33.2l-4.5-5 10-.3c9.2-.3 10.6-.6 15-3 6.7-3.7 9.4-8 9.8-15.8a30 30 0 0 0-6.1-20.3c-2-2.8-3.4-5.3-3.2-5.5a46.8 46.8 0 0 0 15.3 2c6.4 0 8.8-.4 11.7-1.9 7.3-3.8 10.3-9.3 10.3-19 0-5.2-.6-7.5-3.2-13.6-1.8-4-3-7.4-2.9-7.6.2-.2 2.4.5 4.8 1.6 3 1.3 6.8 2 12.3 2.3 7 .4 8.2.2 12.7-2 6-3 9.3-7.9 10-15.1a47.8 47.8 0 0 0-3.9-22.2l7.4 3.7c7 3.6 7.2 3.7 15.4 3.4 7.5-.3 8.6-.6 12.1-3 7.4-5.3 10-14 8-26.9a36 36 0 0 1-.6-6.5c.1-.2 2.3 1.3 4.8 3.3 6.8 5.4 11.3 7.2 18.6 7.2 10.1 0 16.8-4.2 19.7-12.5.7-2.1 1.6-7.8 2-12.5l.5-8.7 5 5.2c6.6 7 12.2 9.7 19.8 9.7 13 0 20.2-7.8 22-24 .4-3.1 1-5.6 1.4-5.6.4 0 1.8 1.5 3.2 3.3 12.6 17.2 26.8 20.5 37.2 8.6a48 48 0 0 0 8.5-17.6c.3-1.8.9-3.3 1.2-3.3.4 0 1.9 2.5 3.4 5.6 5.9 11.8 12.4 16.8 21.8 16.8 6.3 0 10.6-1.8 15-6.4a47.7 47.7 0 0 0 9.2-15.2c0-3.9 1.8-2 3.5 3.6 4.7 15.3 16 23.3 28.4 19.8 5-1.4 11.3-6.9 16.1-13.9 4-5.7 4-5.6 6.2 4 2 9 5.7 15.5 10.7 18.4 3.2 1.9 5 2.3 10.4 2.3 8 0 11.8-1.8 19.4-9.1 3-2.9 5.8-5.3 6-5.3.4 0 .7 2 .7 4.2 0 13.4 4 22 12 25.9 4.4 2.1 5.8 2.4 11.1 2 6.7-.5 10.6-2.1 18-7.8 2.7-2 5-3.5 5.1-3.4.2.1-.1 2.2-.6 4.7-1.8 9 .4 20.6 4.9 25.4 6.7 7.4 21.8 7.3 33.7-.3 2.1-1.3 4-2.2 4.2-2 .1.1-.5 2.8-1.5 6-2 6.7-2.2 15.9-.3 20.5 1.7 4.2 6 8.8 10.4 11 5 2.6 13 2.3 22-.9 4.2-1.4 7.4-2.1 7-1.6-3.2 7.6-5.1 13.1-5.6 16.7-1 9.2 3.2 17.9 10.7 21.7a39 39 0 0 0 22.7.4c7.4-2.2 8.5-.8 4 4.7-8.4 10.6-9.1 25.9-1.6 33 5.7 5.4 8.2 6.2 19.8 6.1 5.8 0 10.5.3 10.5.6s-2.4 3.3-5.4 6.7c-5.6 6.6-8 11.9-8 17.7 0 13 9 21 24.8 22 4.1.2 7.4.7 7.4 1.1 0 .4-2 2.2-4.3 4a30 30 0 0 0-11 14c-5.4 14.1 3 25.7 21.2 29.6 3 .6 5.6 1.3 6 1.6.4.3-2.4 2.4-6.2 4.6-7.5 4.4-10.5 7.5-13 13.4a21.4 21.4 0 0 0 1.7 19.2c3.1 4.5 9.4 8.8 16.5 11.4 2.9 1 5.3 2.3 5.3 2.6 0 .4-2.4 1.5-5.3 2.6-12.4 4.5-19 12.3-19 22.4.1 9.3 5.8 17.3 16.2 22.5 3 1.5 5.4 3.1 5.4 3.6 0 .4-2.5 1.2-5.6 1.7-14.3 2.5-23 11.1-23 22.5 0 6.8 1.6 10 9.4 17.7 4.1 4.2 7.5 7.7 7.5 7.9l-6 .9c-10.1 1-13.4 2.2-18.1 6.4-10.3 9.3-9.6 20.9 2.2 34.5l5 5.7-11 .5c-12.4.6-14.8 1.4-19.5 6.8-3.8 4.2-4.6 6.5-4.6 12.8 0 7 1.2 10.5 5.8 17.7 2.2 3.4 3.9 6.3 3.7 6.4a68.5 68.5 0 0 0-15.8-1.6c-7 0-8 .3-12.5 3-6.6 4-9 8.5-9 17.3 0 5.6.5 7.7 3.2 13.9 1.8 4 3 7.5 2.7 7.8-.3.3-3.3-.4-6.6-1.5-12.7-4.3-21-3.4-27.6 3-2.3 2.2-4.2 5-4.8 7.2a43.7 43.7 0 0 0 .8 21.5c1 3 1.7 5.4 1.5 5.6a49 49 0 0 1-8.3-3.5c-13.7-6.6-22.8-5.7-30.2 3-4.5 5.1-5.7 11-4.4 21.2.5 4.3.8 8 .5 8.2-.2.2-1.8-1-3.7-2.5-1.8-1.5-5.2-4-7.4-5.3-3.6-2.2-4.8-2.5-12.6-2.5-8 0-8.9.2-12.3 2.6-5.9 4-8.4 10.2-9 21.8l-.6 9.5-4.7-5.4c-6.4-7.3-12-10-20.4-10-13.5 0-19.3 6.2-23 24.6l-1 5.4-1.5-2.3c-7-10.6-14.3-16.2-22.1-16.8-11.7-1-20.3 6.9-24.6 22.5a16 16 0 0 1-1.7 4.6c-.4.2-1.9-2.3-3.5-5.6zm.5-40.5A299 299 0 0 0 539 617c25.5-12.4 49-28.5 70.3-48 63.5-58 96.8-134.4 97-222.4 0-64.8-25.1-134.5-66.8-184.7a492 492 0 0 0-43.6-43.3 311.6 311.6 0 0 0-113.4-56.8c-27.4-7-36.7-8-71.3-8-23.6 0-32.4.4-41.3 1.6C288.4 66.8 223 105.3 172 171.7c-48.2 63-67.7 141-55.8 223.8 7 48 26 92.8 57.4 134.7a334.1 334.1 0 0 0 60.8 59.5c43.1 30.4 90.4 48.9 141 55 12 1.5 41.9 1.7 59 .6z"
     id="path18" /></svg>
