<svg version="1.1" id="Layer_1" xmlns="http://www.w3.org/2000/svg" xmlns:xlink="http://www.w3.org/1999/xlink" x="0px" y="0px"
	 width="100%" viewBox="0 0 768 704" enable-background="new 0 0 768 704" xml:space="preserve">
<path fill="#000000" opacity="1.000000" stroke="none" 
	d="
M429.550018,1.000000 
	C434.975311,2.187727 436.964447,5.669706 437.239777,10.451232 
	C437.519135,15.302102 439.650513,19.455530 442.420258,23.239063 
	C447.193848,29.759745 454.416412,30.621347 460.748138,25.608374 
	C465.187225,22.093836 467.816315,17.279276 470.248566,12.304411 
	C472.634491,7.424179 482.448975,5.503891 486.409790,9.044998 
	C487.414429,9.943144 487.150391,11.164132 487.366974,12.279844 
	C488.413666,17.671778 487.751312,23.266956 489.391632,28.592367 
	C492.611877,39.047253 501.265839,42.213596 510.384979,36.260899 
	C514.665955,33.466408 517.979309,29.765409 520.517273,25.388649 
	C522.535034,21.908932 525.002747,20.354225 529.157288,21.874144 
	C533.311096,23.393770 536.893799,24.881927 536.414246,30.406668 
	C536.069641,34.377178 536.247742,38.402878 536.346375,42.400166 
	C536.628967,53.853699 545.185974,59.599598 555.801453,55.437420 
	C561.254578,53.299324 565.288513,49.305977 568.753601,44.747192 
	C570.829773,42.015789 572.982544,40.433620 576.216370,42.918137 
	C579.606323,45.522636 585.894775,46.033951 583.652771,52.789581 
	C581.848694,58.225677 580.881287,63.725971 581.260559,69.475273 
	C581.797974,77.621078 587.893677,82.404602 595.887085,81.158859 
	C602.487244,80.130249 607.624390,76.521080 612.345886,72.267136 
	C615.551941,69.378624 618.305725,69.033455 621.298462,72.257408 
	C621.410339,72.377899 621.560608,72.462379 621.691528,72.565529 
	C629.082825,78.387016 628.951721,76.519875 624.679871,85.206848 
	C622.438354,89.764938 621.083557,94.414078 621.252075,99.594414 
	C621.539185,108.418335 628.337280,114.023666 637.033020,112.343132 
	C642.884705,111.212242 648.049622,108.556320 652.847900,105.185104 
	C655.530945,103.300018 657.399292,103.603584 659.730530,105.951302 
	C666.870789,113.142174 666.955383,113.042206 661.410706,121.672981 
	C658.495544,126.210762 656.181396,130.958237 656.304810,136.553848 
	C656.454529,143.343811 660.965698,148.096268 667.741394,148.701584 
	C673.398254,149.206940 678.597839,147.660812 683.743958,145.570007 
	C690.397034,142.866928 690.966370,143.090408 695.245239,149.027008 
	C696.024719,150.108505 696.705078,151.281876 697.603943,152.252930 
	C699.826416,154.653778 699.722534,156.734329 697.460083,159.175766 
	C694.750854,162.099243 692.129333,165.177322 689.953003,168.504486 
	C686.467834,173.832458 685.167603,180.060410 688.639038,185.479416 
	C692.389893,191.334625 698.841675,192.460327 705.563538,191.265198 
	C706.709595,191.061447 707.848633,190.815720 708.987488,190.573456 
	C720.296570,188.167725 720.182495,188.218597 724.992371,198.782715 
	C726.422913,201.924637 725.846191,203.678421 722.905518,205.192093 
	C718.976135,207.214691 716.035645,210.442078 713.304993,213.821762 
	C709.646545,218.349854 707.653503,223.505356 710.008850,229.136337 
	C712.471863,235.024567 717.953491,236.982559 723.791077,237.573120 
	C727.911194,237.989929 732.153625,238.212906 736.230774,237.208313 
	C739.171448,236.483734 740.636902,237.519165 741.441650,240.209000 
	C741.965698,241.960556 742.654114,243.662308 743.242310,245.395401 
	C744.558289,249.272888 743.577942,251.988464 739.751892,254.038025 
	C736.405396,255.830734 733.088257,257.995209 730.405151,260.649445 
	C722.659851,268.311432 720.290344,280.197418 735.584473,285.273926 
	C739.489441,286.570068 743.691345,287.232971 747.807251,287.568970 
	C753.626099,288.043976 754.569702,292.081085 755.215454,296.540802 
	C755.816589,300.692535 754.508301,303.395172 750.130615,304.897614 
	C744.783875,306.732635 739.678772,309.293060 735.866150,313.779083 
	C730.614075,319.958984 731.225159,326.926239 737.446411,332.185883 
	C741.934875,335.980560 747.457214,337.288910 752.885742,338.900055 
	C757.722656,340.335632 761.749329,348.707855 759.977295,353.350830 
	C759.315552,355.084686 757.773743,355.089355 756.314209,355.437897 
	C751.466431,356.595367 746.520142,357.440002 742.047913,359.840576 
	C730.662109,365.952148 729.991455,377.515076 740.607117,384.898560 
	C744.481506,387.593384 748.815247,389.319977 753.266357,390.732727 
	C756.103943,391.633362 757.507324,393.035553 756.505310,396.213165 
	C756.065552,397.607605 756.240845,399.187531 756.061279,400.674133 
	C755.531616,405.062073 753.333984,407.586182 748.632690,407.810028 
	C743.818298,408.039276 739.037354,408.486511 734.571289,410.746796 
	C725.079285,415.550812 723.251221,424.011230 730.149170,432.065002 
	C733.339539,435.789917 737.299866,438.558807 741.597351,440.826874 
	C746.219421,443.266266 746.376770,446.909729 745.222717,451.442535 
	C744.111877,455.805817 742.192505,457.796631 737.306274,457.526886 
	C731.737183,457.219452 726.012573,456.485016 720.556946,458.968933 
	C711.755249,462.976349 709.306396,470.900818 714.528687,479.121124 
	C716.982910,482.984314 720.413452,485.900116 723.932983,488.715576 
	C727.139526,491.280670 729.380615,493.936188 727.183411,498.483398 
	C724.479370,504.079590 721.891907,506.090363 716.506775,505.133606 
	C712.547424,504.430145 708.621155,503.932831 704.604004,504.085876 
	C690.438110,504.625641 688.610352,515.115112 693.246155,525.647034 
	C694.989746,529.608215 698.206848,532.776611 701.434143,535.659546 
	C704.608337,538.495056 704.511658,541.028259 702.054382,544.247559 
	C699.427979,547.688538 697.554199,552.104492 691.888367,549.659302 
	C687.262146,547.662781 682.480469,546.364258 677.401001,546.302124 
	C666.154053,546.164612 660.689636,553.404907 663.824341,564.358337 
	C665.179626,569.094116 667.664429,573.265625 670.935120,576.859741 
	C673.832947,580.044128 673.547363,582.623413 670.431458,585.300293 
	C669.299438,586.272766 668.305786,587.418518 667.321594,588.548462 
	C664.592163,591.682129 661.482056,592.063721 657.949219,589.998901 
	C654.056824,587.723877 650.069519,585.787842 645.548035,584.907593 
	C634.433472,582.743713 627.692871,588.791992 628.676880,600.111084 
	C629.123230,605.245422 631.132324,609.776306 633.623840,614.113586 
	C635.613464,617.577271 635.386780,619.922180 631.889038,622.505981 
	C624.497131,627.966370 624.648987,628.173096 617.176331,622.732727 
	C614.467957,620.760925 611.564453,619.133484 608.439819,617.931702 
	C596.567383,613.364990 587.182129,620.810852 588.922485,633.547791 
	C589.482666,637.647278 590.499084,641.699402 591.527893,645.716553 
	C593.343750,652.806946 586.792419,653.074768 583.370239,655.805847 
	C580.154358,658.372192 578.653809,655.213379 576.952454,653.379639 
	C573.189697,649.324158 569.291504,645.444214 564.067749,643.306152 
	C554.664307,639.457153 546.314697,644.429443 545.362000,654.536194 
	C544.925049,659.171997 544.809021,663.847473 545.829834,668.463745 
	C546.478699,671.398499 547.396790,674.115662 543.324829,675.840332 
	C535.905212,678.982971 533.099304,679.260132 530.230896,675.497559 
	C527.710022,672.190857 525.567139,668.617493 522.363159,665.846375 
	C512.132019,656.997498 501.877533,659.905334 498.033661,672.872131 
	C496.657318,677.515137 495.594147,682.246033 496.874176,687.123901 
	C497.621826,689.973267 496.545502,691.600281 493.701508,692.187805 
	C492.073364,692.524170 490.412231,692.795837 488.850159,693.338867 
	C484.324768,694.912048 481.856934,693.429199 480.097748,688.891052 
	C477.845459,683.080750 473.984436,678.187012 468.780334,674.571289 
	C463.545319,670.934021 458.433899,671.399902 453.820312,675.773376 
	C448.639038,680.685120 447.361969,687.214722 446.325897,693.847656 
	C445.927338,696.399231 446.471344,700.189026 443.837830,700.870422 
	C439.587677,701.970154 434.877350,702.060974 430.555420,700.635559 
	C429.078156,700.148254 428.998108,697.856812 428.654816,696.228638 
	C427.536194,690.923767 425.428101,686.065369 421.868439,681.937500 
	C415.888611,675.003235 408.334045,674.807373 402.073273,681.449097 
	C398.087463,685.677429 395.557556,690.816528 394.531433,696.434937 
	C393.861786,700.101379 392.544464,701.494019 388.739777,701.466187 
	C378.882263,701.394043 378.328522,701.043640 376.623993,691.133606 
	C375.885437,686.839478 374.592651,682.728638 371.919464,679.161804 
	C366.743591,672.255493 359.567474,671.425476 352.884369,676.988464 
	C348.680634,680.487610 346.059509,685.089722 343.635284,689.884644 
	C340.818542,695.455933 332.853119,697.004089 327.900940,693.156555 
	C326.260132,691.881775 326.803864,690.157959 326.672791,688.572876 
	C326.154602,682.307800 326.609924,675.892639 323.364410,670.094482 
	C318.868378,662.062195 312.402222,660.355347 304.554199,665.243225 
	C300.196136,667.957458 297.022797,671.844666 294.469452,676.163818 
	C292.023224,680.301697 288.845276,681.384399 284.366577,679.975403 
	C279.754395,678.524414 276.952606,676.391663 277.508270,670.743225 
	C277.988159,665.865051 279.193359,660.977478 277.804810,655.886597 
	C275.178406,646.257263 267.637543,642.461487 258.609070,646.797607 
	C253.724960,649.143311 249.786499,652.690796 246.284531,656.805298 
	C244.777390,658.576050 244.227020,662.451294 240.404404,660.244629 
	C236.781281,658.153198 232.832504,656.187256 233.810089,650.851562 
	C234.049301,649.545837 234.401245,648.253723 234.796280,646.984924 
	C236.113907,642.752869 236.097580,638.406311 235.602371,634.103760 
	C234.570557,625.139221 228.053391,620.797791 219.297318,622.909119 
	C213.259018,624.365173 208.251190,627.568115 204.041611,631.969299 
	C201.833099,634.278320 200.091568,634.144775 197.627594,632.391052 
	C190.939056,627.630554 188.659149,624.272705 192.977798,616.641296 
	C194.694702,613.607361 195.348480,610.055176 195.604462,606.557495 
	C196.425140,595.343140 188.887161,588.990845 177.930161,591.719299 
	C173.221634,592.891724 168.678772,594.648010 164.911438,597.831238 
	C162.153931,600.161133 160.068665,600.291199 157.367386,597.418213 
	C151.163208,590.819580 150.913132,589.881409 155.828613,582.064270 
	C158.707611,577.485779 160.771149,572.640076 160.683838,567.085938 
	C160.579422,560.443787 156.843643,556.067139 150.232056,555.245056 
	C143.992584,554.469177 137.961716,555.244019 132.265762,558.154602 
	C129.553619,559.540527 126.985123,561.644958 124.076637,557.798279 
	C119.265625,551.435364 118.506432,548.724548 121.682602,544.502747 
	C123.882957,541.577942 126.391632,538.854919 128.329208,535.769531 
	C131.458389,530.786682 133.276169,525.361694 130.026718,519.751709 
	C126.908310,514.367920 121.679016,513.054016 115.828735,513.288086 
	C112.344864,513.427429 108.880257,513.222778 105.426674,514.198669 
	C99.310219,515.927063 97.923500,515.029358 94.693985,509.375854 
	C92.218895,505.042969 91.533607,501.695312 96.902008,498.886780 
	C99.459587,497.548767 101.529060,495.078552 103.484505,492.829803 
	C107.717102,487.962311 110.571091,482.301636 107.950081,475.902435 
	C105.368050,469.598389 99.204521,468.034302 93.103111,467.441528 
	C89.163292,467.058807 85.097359,466.835327 81.171707,467.909851 
	C78.574104,468.620850 77.020798,467.744629 76.233124,465.203400 
	C75.691422,463.455841 75.043831,461.738556 74.384666,460.030457 
	C72.816460,455.966553 73.654869,453.099548 77.909363,451.138489 
	C82.660744,448.948395 86.484161,445.381409 89.735771,441.313965 
	C95.461899,434.151093 93.772720,425.990356 85.748413,421.525421 
	C80.785362,418.763763 75.388481,418.161224 69.810944,418.194305 
	C66.602516,418.213379 63.149765,418.893616 62.579422,413.697449 
	C61.400032,402.952545 61.194065,402.835846 67.218681,400.864960 
	C72.071800,399.277313 76.270569,396.560608 79.916870,393.114594 
	C86.888771,386.525696 86.232681,378.421997 78.470818,372.741638 
	C74.498894,369.834869 70.010719,368.197632 65.205185,367.257996 
	C59.270012,366.097473 54.619713,357.318085 56.936340,351.766663 
	C57.714546,349.901825 59.478985,349.924866 61.121250,349.628845 
	C67.048828,348.560425 72.850861,347.166107 77.755943,343.334106 
	C85.510605,337.275879 85.775276,329.107574 78.326920,322.636292 
	C73.998695,318.875885 69.332909,315.748108 63.429134,315.038788 
	C60.261402,314.658203 59.131500,313.253387 59.496975,309.703583 
	C60.548168,299.493500 61.588665,298.213684 71.930138,297.700806 
	C74.640038,297.566437 77.191109,296.883881 79.665314,295.887665 
	C91.232689,291.230194 93.373863,281.093750 84.670403,272.275421 
	C81.962227,269.531494 79.036339,267.006927 75.501869,265.431976 
	C70.638924,263.265045 69.604874,259.682190 70.757088,254.819748 
	C72.682671,246.693558 72.599342,246.780807 81.223984,246.671173 
	C86.324463,246.606323 91.529335,247.568451 96.429840,244.981094 
	C103.682320,241.151978 105.983513,234.765747 102.491333,227.342743 
	C100.078133,222.213242 95.957642,218.592529 91.666611,215.094757 
	C87.059044,211.338974 86.884178,209.513290 89.853622,203.360168 
	C91.850815,199.221695 94.765785,198.092896 99.250328,199.301056 
	C104.566750,200.733322 110.003136,201.189453 115.523987,199.665665 
	C123.049751,197.588470 126.593178,191.732849 124.811058,184.147385 
	C123.330971,177.847458 119.696831,172.886887 115.045471,168.788940 
	C111.430374,165.603943 111.809402,162.939743 114.232437,159.391418 
	C116.707886,155.766357 118.863403,152.425888 124.178207,154.341599 
	C128.693451,155.969101 133.173874,157.675491 138.139618,157.908142 
	C150.961578,158.508926 155.236038,150.134781 151.773804,138.366653 
	C150.563675,134.253372 148.477127,130.298004 145.440170,127.115746 
	C142.643845,124.185654 142.428604,121.857773 145.406357,118.666504 
	C153.137772,110.380760 150.642548,110.321198 160.523361,116.209656 
	C165.291840,119.051430 170.352280,120.201477 175.814819,119.800690 
	C182.472504,119.312210 186.411026,115.156731 186.791687,108.523438 
	C187.178818,101.777451 185.371262,95.601593 181.774216,90.031624 
	C179.509842,86.525261 179.786606,84.128502 183.282196,81.727371 
	C186.813141,79.301956 189.883850,75.442894 194.600937,79.406288 
	C197.685043,81.997627 201.027054,84.178001 204.632416,85.929909 
	C216.641373,91.765305 225.835464,86.124649 225.980988,72.852043 
	C226.028870,68.484520 225.415939,64.201408 223.715240,60.152969 
	C221.312744,54.433891 225.192032,52.169949 229.063889,49.475025 
	C232.870178,46.825748 235.547836,47.435886 238.424118,50.810425 
	C241.228943,54.101112 244.447983,57.035698 248.197205,59.309132 
	C258.684692,65.668442 268.639679,60.638462 269.612732,48.370995 
	C270.008209,43.385269 270.048035,38.327560 268.536621,33.504391 
	C267.542267,30.331329 268.732910,28.837498 271.525940,27.890707 
	C272.943298,27.410238 274.366638,26.886282 275.686584,26.190825 
	C280.118347,23.855785 283.151886,25.074535 285.514130,29.418415 
	C287.510559,33.089573 290.306763,36.242619 293.559021,38.902046 
	C303.229095,46.809456 314.714661,42.425297 316.592682,30.035194 
	C317.214478,25.933247 317.530396,21.754755 317.582184,17.606222 
	C317.622925,14.342827 317.809448,11.736347 321.852173,11.084012 
	C326.153076,10.390016 330.641083,7.728784 333.736664,13.348448 
	C335.984283,17.428743 338.166504,21.545305 341.464600,24.961250 
	C351.191711,35.035908 358.200470,34.061218 364.708038,21.694683 
	C367.101959,17.145433 368.043182,12.305834 367.841309,7.228566 
	C367.721985,4.226047 368.950470,2.872550 371.996552,2.211287 
	C380.750946,0.310839 383.191681,1.458485 386.307495,10.012774 
	C387.919464,14.438353 389.893188,18.643499 393.187042,22.069950 
	C398.898773,28.011688 405.282196,28.051662 411.082855,22.220776 
	C415.438293,17.842703 417.929169,12.442323 419.474762,6.548391 
	C419.896545,4.939851 420.303558,3.327431 420.858673,1.358396 
	C423.700012,1.000000 426.400024,1.000000 429.550018,1.000000 
M134.017273,512.522583 
	C136.138153,515.121277 137.831619,517.844055 138.523361,521.278442 
	C140.294571,530.072083 136.928467,537.238525 131.969589,544.036377 
	C130.654480,545.839233 128.643860,547.288513 128.341965,550.958801 
	C140.976990,547.165161 154.062714,543.022705 163.741470,554.568481 
	C173.628342,566.362671 166.531113,578.276611 160.092072,590.670532 
	C166.219025,588.481262 170.584976,585.756470 175.554138,584.512451 
	C193.349564,580.057251 206.250610,592.162170 202.590729,610.156433 
	C201.654770,614.758179 200.267319,619.268127 199.042526,623.992920 
	C201.525940,624.462463 202.559433,622.902100 203.836624,622.002441 
	C208.103455,618.997009 212.671951,616.727600 217.805603,615.578491 
	C230.153778,612.814575 238.619766,617.700195 242.326782,629.851074 
	C244.211441,636.028503 243.297989,642.289246 242.575287,649.460938 
	C246.414490,645.914795 249.764862,642.970154 253.679108,640.805298 
	C267.158722,633.349854 280.891357,638.827026 284.825195,653.392029 
	C285.726898,656.730530 286.160736,660.194458 285.675385,663.763367 
	C285.290131,666.596252 284.522858,669.610840 286.634979,673.048828 
	C289.798859,669.452637 292.543182,666.009949 295.624939,662.901917 
	C301.028168,657.452515 307.535675,654.175354 315.371857,655.372498 
	C325.238892,656.879883 333.053772,667.155396 333.362885,678.247986 
	C333.450562,681.393616 332.877502,684.789734 336.099548,687.708069 
	C339.249176,682.554871 341.538147,677.307434 345.713928,673.404114 
	C351.278534,668.202698 357.331665,664.575500 365.457123,666.422791 
	C376.549438,668.944641 380.511444,677.459839 383.362427,687.082764 
	C384.019012,689.299011 383.492188,692.085510 385.929382,693.716919 
	C388.034210,692.951294 387.972137,691.002197 388.621368,689.604309 
	C390.729828,685.064514 392.750153,680.490479 396.129730,676.695923 
	C402.965729,669.020508 412.553406,666.988831 420.886536,671.593262 
	C427.849609,675.440674 431.558777,681.852295 434.380402,688.987305 
	C435.025970,690.619751 434.619934,693.222717 437.537384,693.506470 
	C439.299622,691.918945 439.262268,689.674744 439.725922,687.625000 
	C441.105072,681.527832 443.335114,675.850586 447.736481,671.223450 
	C455.125732,663.455139 464.715607,662.476135 473.405609,668.702881 
	C478.363464,672.255432 482.072479,676.933594 485.221069,682.111328 
	C485.908295,683.241455 486.056763,685.130310 488.360931,684.887817 
	C488.825623,681.438293 489.051117,677.965393 489.792908,674.606567 
	C491.758667,665.705444 494.906250,657.217224 504.618469,654.305847 
	C514.163147,651.444763 522.290649,655.126038 529.067322,661.942993 
	C531.047668,663.935120 532.634888,666.319458 534.389526,668.534180 
	C535.096252,669.426270 535.635010,670.705627 537.108704,670.093567 
	C538.559814,669.491028 538.019409,668.256653 537.967285,667.089966 
	C537.789185,663.100281 537.535583,659.093933 537.713440,655.112000 
	C538.312988,641.684814 548.342957,633.026367 561.333191,634.788940 
	C567.841309,635.671936 573.076233,639.196716 577.809448,643.607605 
	C579.270935,644.969543 580.327393,647.176208 582.704651,647.108032 
	C584.173218,645.472290 583.245667,644.084167 582.984558,642.647827 
	C582.390930,639.382568 581.679565,636.107788 581.473450,632.808289 
	C580.321045,614.361511 595.405701,603.881287 612.235718,611.434509 
	C615.413147,612.860474 618.367859,614.781677 621.432068,616.462158 
	C622.537231,617.068298 623.344116,618.451782 624.953857,617.854309 
	C626.504272,616.256958 625.485718,614.711304 624.735413,613.301453 
	C621.557617,607.330505 621.117737,600.981873 621.605591,594.377747 
	C622.231201,585.909119 627.777100,579.475464 636.113159,577.568176 
	C644.115234,575.737244 651.215088,578.264709 658.251343,581.530090 
	C659.692444,582.198730 661.238708,583.531494 662.802307,581.908020 
	C664.472961,580.173401 662.822815,578.855896 661.951782,577.547180 
	C659.249451,573.487549 657.170044,569.151794 656.065857,564.392700 
	C652.745239,550.080078 661.892944,538.630981 676.540344,538.691956 
	C681.252502,538.711548 685.779907,539.755493 690.283325,540.985962 
	C691.651367,541.359802 693.061279,542.387207 694.694580,540.393677 
	C692.238403,537.057739 689.449341,533.804626 687.255920,530.190186 
	C680.661011,519.322388 681.359009,502.092621 697.553772,497.709686 
	C703.155334,496.193665 708.750305,496.410156 714.388489,497.132263 
	C716.129211,497.355164 717.933533,498.407471 719.430847,496.552765 
	C719.605774,494.255951 717.632874,493.511932 716.424438,492.248138 
	C714.239685,489.963318 711.774170,487.897919 709.870056,485.402069 
	C699.755188,472.143860 703.916809,457.144592 719.201599,451.422180 
	C723.338013,449.873505 727.671692,449.885437 732.017334,449.851440 
	C733.833130,449.837189 736.061584,450.710388 737.379700,448.413879 
	C736.700134,446.166779 734.572144,445.592529 733.003540,444.511353 
	C728.982910,441.739868 725.390686,438.552307 722.563293,434.565765 
	C715.498596,424.605072 717.819946,412.453033 728.094055,405.896393 
	C732.787537,402.901154 737.893127,400.993835 743.529236,400.635986 
	C745.232849,400.527771 747.777710,401.352234 748.216125,398.977753 
	C748.715332,396.273682 745.821716,396.189331 744.143188,395.468781 
	C738.850159,393.196655 734.128540,390.156067 730.437622,385.704193 
	C722.706787,376.379547 724.074524,364.119629 733.486450,356.482788 
	C737.606689,353.139709 742.400208,351.366089 747.327148,349.770355 
	C748.970093,349.238220 751.072815,349.325745 751.531799,347.072754 
	C751.030762,345.186615 749.477478,345.578033 748.249878,345.279510 
	C741.345276,343.600464 734.919067,341.008575 730.062744,335.516510 
	C723.378235,327.956726 722.953369,318.300964 728.742065,310.301147 
	C732.094971,305.667572 736.778870,302.930023 741.659302,300.323578 
	C743.622437,299.275208 746.185608,298.943054 747.222839,296.383026 
	C745.636841,294.429504 743.399902,294.600250 741.305908,294.321167 
	C734.933228,293.471741 728.902771,291.617645 723.903931,287.423279 
	C718.428589,282.829132 715.979309,277.200043 717.265381,269.746033 
	C718.721497,261.306427 723.650330,255.731964 730.235107,251.028748 
	C732.035095,249.743073 734.583069,249.203949 735.462341,246.353439 
	C731.994629,244.460098 728.316040,245.638443 724.830078,245.321686 
	C715.337219,244.459045 706.916931,241.324326 703.020325,231.975815 
	C699.229736,222.881516 702.277161,214.680527 708.672302,207.636642 
	C710.683716,205.421082 712.942810,203.430817 715.080627,201.329376 
	C715.800964,200.621246 716.560791,199.859543 716.170410,198.740662 
	C715.695862,197.380234 714.485962,197.191055 713.286865,197.367493 
	C711.481018,197.633194 709.649658,197.896194 707.913452,198.432983 
	C702.171997,200.208099 696.670044,199.091415 691.300720,197.068604 
	C683.919922,194.287994 679.696289,187.553207 679.408813,179.719299 
	C679.091675,171.078430 682.740723,164.291046 688.241882,158.141678 
	C689.315063,156.942139 690.828979,155.857574 689.370117,153.884872 
	C688.070618,152.127670 686.615601,152.577377 684.938599,153.151886 
	C681.952271,154.174911 678.960083,155.276749 675.881226,155.917358 
	C662.094727,158.785873 650.391663,151.568207 648.835999,139.175537 
	C647.925964,131.926651 650.363953,125.412170 653.929382,119.209129 
	C654.896606,117.526375 656.990112,116.037766 655.613281,113.059738 
	C644.004517,118.884552 631.877686,125.346138 620.367310,114.867691 
	C609.037415,104.553467 613.595642,91.853760 618.344482,80.018196 
	C615.818542,78.540497 614.806091,80.298149 613.548523,81.202927 
	C609.605347,84.039894 605.485779,86.524323 600.760254,87.845352 
	C586.996399,91.693115 575.155151,84.529350 573.801208,71.309448 
	C573.258850,66.013527 573.357666,60.654552 574.975525,55.460651 
	C575.399414,54.099617 576.363708,52.635563 574.206848,51.329620 
	C570.719849,54.171249 567.361633,57.385284 563.553101,59.923721 
	C551.173645,68.174835 537.422668,65.272453 531.420227,53.382710 
	C529.264832,49.113297 528.724121,44.547905 528.633362,39.823456 
	C528.571716,36.617668 529.496155,33.276100 527.910461,29.768290 
	C524.935364,31.794212 523.663269,34.828487 521.451599,36.979511 
	C514.660889,43.583977 507.219299,48.738010 497.045990,46.331741 
	C486.976318,43.949989 483.272827,36.144806 481.343567,27.055059 
	C480.898132,24.956324 480.933563,22.759472 480.570831,20.638021 
	C480.258331,18.810482 480.738647,16.535095 477.788483,15.379702 
	C474.876770,19.302391 472.990173,23.973404 469.755859,27.740225 
	C458.514374,40.832516 441.603424,39.005947 433.671692,23.730764 
	C431.746979,20.024105 430.178650,16.175901 429.673370,11.986895 
	C429.508301,10.618737 429.471893,9.265239 427.608948,9.025194 
	C425.792236,9.827801 426.033386,11.800114 425.497375,13.245918 
	C423.498230,18.638487 420.648071,23.486418 416.726440,27.666317 
	C410.024536,34.809677 400.227844,36.195320 392.200897,31.156437 
	C385.975159,27.248251 382.566223,21.197407 379.786743,14.655556 
	C379.059875,12.944751 379.189545,10.607540 376.931152,9.842124 
	C375.068268,10.441287 375.510590,11.966016 375.313141,13.207624 
	C373.935638,21.868837 370.429474,29.351393 363.695862,35.250675 
	C358.540344,39.767406 352.870087,40.929745 346.637054,38.099674 
	C339.231750,34.737324 333.941711,29.111067 329.881256,22.188219 
	C329.020935,20.721487 328.745056,18.553921 325.589966,18.634724 
	C325.174347,22.275549 324.676514,25.989496 324.337952,29.717903 
	C323.098145,43.371746 312.620300,52.369072 300.031067,50.231445 
	C292.190155,48.900078 286.610352,43.982807 281.959839,37.800976 
	C280.776031,36.227352 280.110443,33.805000 277.304901,33.856506 
	C277.304901,38.682610 277.451141,43.272739 277.277740,47.850765 
	C276.733734,62.213284 267.470825,70.703972 253.767532,69.279388 
	C247.566330,68.634712 242.617371,65.264061 238.025589,61.221428 
	C236.310043,59.711060 234.985428,57.171265 231.690125,57.680347 
	C232.351532,62.418644 233.205414,66.939224 233.578354,71.499146 
	C234.823715,86.725456 225.923355,95.940842 210.780212,95.359222 
	C204.677872,95.124855 199.693695,92.139481 194.690765,89.100571 
	C193.240051,88.219368 192.167023,86.342468 190.005219,86.943329 
	C189.339981,88.490158 190.402405,89.556023 190.891876,90.717720 
	C193.450974,96.791443 194.691803,103.064407 194.357635,109.691132 
	C193.883408,119.095703 186.549438,126.688660 177.194214,127.347420 
	C170.027817,127.852058 163.292236,126.541901 156.969635,123.079765 
	C155.774841,122.425507 154.620438,120.950050 152.841995,122.405304 
	C152.372910,124.019829 153.670288,125.090439 154.337738,126.336975 
	C156.381104,130.153259 158.545105,133.904709 159.711227,138.124634 
	C163.264313,150.982285 157.110718,162.789627 145.260971,164.970291 
	C139.359146,166.056396 133.345993,165.725403 127.513664,163.612015 
	C125.743683,162.970642 123.680061,161.371872 121.477058,163.203003 
	C121.826385,165.175125 123.244514,166.179840 124.296043,167.402023 
	C127.603203,171.245911 129.995209,175.600388 131.558319,180.403793 
	C135.819656,193.498749 129.277969,204.576035 115.738365,207.307144 
	C111.453880,208.171387 107.227379,208.470413 102.860031,207.574936 
	C100.923622,207.177856 98.723541,206.351120 96.752075,207.384552 
	C96.097794,209.607529 97.803978,210.170395 98.790489,211.186218 
	C101.340576,213.812180 104.166191,216.238419 106.342926,219.147614 
	C116.945900,233.318268 110.838104,250.244919 93.761742,253.840286 
	C90.074165,254.616699 86.133316,254.167511 82.311859,254.342453 
	C80.881653,254.407928 79.132935,253.997665 78.521767,255.930084 
	C77.848015,258.060486 79.460014,258.884338 80.908401,259.746368 
	C85.396660,262.417633 89.267502,265.821899 92.578255,269.834167 
	C101.075615,280.131927 98.590874,293.863617 87.057953,300.655090 
	C82.383080,303.408051 77.318649,304.872955 71.930725,305.329163 
	C70.383873,305.460144 68.418182,304.904083 67.923988,307.799438 
	C74.071640,310.108185 79.766624,313.421875 84.591209,318.047028 
	C92.431519,325.563232 93.595398,336.017670 87.430588,344.237244 
	C83.165703,349.923645 77.253456,353.189667 70.567635,355.268982 
	C68.770279,355.827942 66.545235,355.697723 65.420708,357.803619 
	C66.057716,360.379700 68.336418,360.237915 70.147575,360.757904 
	C75.149345,362.193848 79.924736,364.101074 84.032532,367.382141 
	C93.308502,374.791168 94.917435,384.930359 88.339104,394.799530 
	C84.702095,400.256042 79.253105,403.465820 73.629364,406.470306 
	C72.289185,407.186310 70.165627,407.004578 69.854843,409.238495 
	C70.782516,411.334442 72.696983,410.556946 74.212708,410.674255 
	C80.123344,411.131683 85.726013,412.612488 90.762543,415.770630 
	C97.305649,419.873444 100.912689,425.560028 100.474228,433.626465 
	C99.931465,443.611786 93.137314,449.192322 86.293488,454.898895 
	C84.898346,456.062225 82.350311,456.177979 82.237854,459.010193 
	C84.582100,460.295197 87.123917,459.641937 89.516701,459.629486 
	C94.603622,459.603027 99.470352,460.544922 104.095581,462.558289 
	C114.277634,466.990509 118.475220,476.192291 115.396248,486.686035 
	C113.845238,491.972229 110.885262,496.256958 107.005379,500.063812 
	C105.182724,501.852203 102.780846,503.210419 101.462440,506.728149 
	C112.951965,505.815399 124.316345,503.266113 134.017273,512.522583 
z"/>
<path fill="#000000" opacity="1.000000" stroke="none" 
	d="
M563.285400,96.644356 
	C629.299255,137.916199 673.061157,195.625549 694.628296,270.062958 
	C703.884949,302.011658 707.340820,334.773956 705.009216,367.830200 
	C699.527344,445.550446 668.820129,511.884521 612.043823,565.453308 
	C567.306396,607.663269 514.179504,633.171631 453.235779,642.483765 
	C337.551117,660.160217 220.258057,606.365051 158.614304,507.096954 
	C135.988083,470.660828 120.880409,431.309692 115.984436,388.713715 
	C104.926315,292.505707 132.692596,208.928650 200.879761,139.775513 
	C244.517563,95.519516 297.732727,68.352654 358.938141,57.999519 
	C431.478088,45.729115 499.647217,58.774014 563.285400,96.644356 
M422.442108,637.713562 
	C435.795990,637.608765 449.024567,635.892761 462.067505,633.387451 
	C519.011780,622.449463 569.012939,597.432312 610.194885,556.525574 
	C677.994629,489.178925 706.073730,407.304016 695.398132,312.526794 
	C690.853516,272.179443 677.636475,234.301315 655.785339,199.946030 
	C600.946411,113.725937 522.100403,67.732948 420.237427,61.510201 
	C396.080963,60.034496 372.037750,62.674290 348.375671,67.931137 
	C285.482880,81.903595 232.405411,112.878426 190.859802,162.070831 
	C129.957764,234.182388 108.424957,317.500519 127.711746,409.681213 
	C146.072479,497.435760 196.859802,562.420593 275.625061,605.045349 
	C321.000732,629.600952 369.927856,639.854187 422.442108,637.713562 
z"/>
<path fill="#000000" opacity="1.000000" stroke="none" 
	d="
M431.923584,184.198395 
	C436.820465,170.766571 444.784393,160.130753 456.134827,152.074097 
	C462.360474,147.655090 462.377319,147.671921 458.929474,140.799500 
	C458.492676,139.928833 457.994507,139.088959 457.118256,137.495667 
	C452.761322,142.632660 448.686249,147.378235 444.675415,152.177536 
	C433.353333,165.725372 422.106720,179.336807 410.702393,192.814865 
	C408.842163,195.013290 408.584106,196.877930 409.475891,199.564377 
	C411.791809,206.540787 410.775269,213.176559 405.720337,218.644592 
	C403.415802,221.137451 403.347473,223.021881 405.301636,225.509842 
	C406.531616,227.075775 407.643738,228.770203 408.566254,230.533813 
	C410.219879,233.695129 412.611176,235.140060 416.238220,234.748886 
	C418.509216,234.503952 420.638367,234.770248 420.632111,237.985458 
	C420.625916,241.168869 419.205170,242.463257 416.035065,242.291763 
	C413.044556,242.129990 410.028992,242.407394 407.041595,242.219086 
	C404.782806,242.076721 401.788849,243.420761 400.858398,239.757263 
	C399.945557,236.163132 402.091736,234.697205 405.387817,234.068253 
	C404.596527,232.628098 403.986908,231.651932 403.503906,230.616714 
	C401.283630,225.858170 398.307739,223.529007 392.351074,224.167709 
	C383.906586,225.073212 377.295807,220.587341 374.616516,212.538315 
	C372.920654,207.443604 369.484161,208.480225 365.952087,208.260437 
	C361.726318,207.997498 362.202179,211.313660 361.716034,213.677429 
	C356.206207,240.469177 339.354126,257.427887 312.885406,262.691620 
	C281.901642,268.853180 249.333160,245.685318 244.723785,214.218658 
	C244.171143,210.445938 244.877869,205.911850 238.663635,205.977188 
	C236.652985,205.998322 236.819397,203.480881 236.954987,201.857910 
	C239.856064,167.130661 265.707489,144.349518 293.787872,140.599152 
	C313.955994,137.905533 331.676239,143.258575 347.074829,156.354156 
	C349.461029,158.383469 350.965881,158.516556 353.405579,156.525238 
	C362.131836,149.402740 362.207092,149.485214 357.692047,139.311249 
	C356.611145,136.875549 355.098694,134.562149 354.436066,132.022537 
	C352.073486,122.967171 344.904510,119.852585 337.079376,117.413765 
	C335.975708,117.069778 334.747772,116.914650 333.800873,116.317635 
	C331.220062,114.690422 328.367279,112.615440 329.021301,109.343216 
	C329.716309,105.865990 333.308685,106.864204 335.772858,106.920395 
	C347.921112,107.197418 360.048889,105.404892 372.202332,106.616928 
	C374.530823,106.849159 377.462708,106.691101 377.709045,109.642303 
	C377.948334,112.509361 374.938568,112.994507 372.815521,113.808411 
	C371.741760,114.220055 370.530304,114.257248 369.423187,114.599754 
	C361.338287,117.100990 358.560089,123.293633 362.058929,130.831329 
	C367.808838,143.218781 373.519440,155.624481 379.264862,168.014023 
	C380.085541,169.783752 381.008331,171.506149 382.046722,173.574951 
	C389.981415,170.001144 396.588531,165.280853 403.034760,160.340607 
	C418.985718,148.116165 431.863159,133.241333 441.617737,115.630463 
	C443.684113,111.899811 444.122345,108.589844 441.699341,104.948318 
	C440.694946,103.438812 440.092560,101.661636 439.309387,100.005234 
	C439.024567,99.402878 438.704346,98.813255 438.470673,98.191376 
	C437.246155,94.932373 445.347046,79.201775 448.712341,78.339745 
	C451.928284,77.515991 454.513184,78.794495 455.759857,81.605927 
	C457.140106,84.718506 456.741943,87.886894 453.465393,89.912186 
	C452.345337,90.604507 450.841919,90.749146 449.845367,91.554512 
	C447.261963,93.642319 445.538452,95.941742 447.378754,99.679291 
	C454.220886,113.575363 460.932709,127.536987 467.535339,141.548508 
	C468.934082,144.516815 470.703461,144.179337 473.164612,143.342606 
	C488.411011,138.159241 503.539764,138.754837 518.635864,144.203720 
	C522.840088,145.721222 525.919067,147.269241 522.710327,152.040207 
	C523.503235,153.828613 525.028198,154.297058 526.255432,155.101669 
	C546.305054,168.246918 556.534363,192.038864 552.101990,215.261307 
	C547.651489,238.578934 529.436340,257.271332 506.324066,262.238434 
	C472.158203,269.581146 440.306091,247.180923 434.990936,211.708786 
	C434.362640,207.515793 432.759125,205.951385 428.898163,205.866211 
	C427.923218,198.303604 429.746521,191.424164 431.923584,184.198395 
M536.702820,227.180405 
	C541.427490,217.378815 543.713928,207.313278 541.754883,196.280334 
	C536.945801,169.195908 510.195679,150.500092 481.535065,157.606445 
	C478.020721,158.477829 476.464752,160.054214 478.489594,164.010910 
	C483.493408,173.788727 488.147278,183.746140 492.900940,193.650986 
	C493.862610,195.654724 494.951965,197.097855 497.324463,197.930222 
	C502.247955,199.657516 504.334778,204.279205 502.745483,208.665390 
	C501.130951,213.121231 496.310822,215.460556 491.776917,213.988708 
	C487.385956,212.563278 484.985291,207.918030 486.600677,203.107178 
	C487.427551,200.644714 487.097992,198.740524 485.993073,196.519485 
	C481.396576,187.279968 477.001404,177.940460 472.442749,168.681778 
	C471.522003,166.811768 470.954529,164.571259 468.746429,163.604416 
	C466.458588,164.070114 464.820923,165.543854 463.153931,166.875473 
	C447.978149,178.998047 441.351868,199.520859 447.143921,218.048996 
	C453.223694,237.497589 466.734406,249.555969 486.725006,252.349472 
	C508.225952,255.354034 524.991577,246.499237 536.702820,227.180405 
M341.435730,208.287750 
	C333.438202,208.288452 325.440002,208.348480 317.443420,208.261856 
	C314.047821,208.225067 311.060394,208.446976 308.334961,211.145935 
	C305.614105,213.840393 301.992249,213.950592 298.652649,211.787552 
	C295.365540,209.658493 294.162689,206.483917 294.834747,202.702621 
	C295.538452,198.743103 298.456635,195.924911 302.006927,196.193573 
	C307.333771,196.596634 310.236115,193.441711 313.568085,190.613144 
	C320.425781,184.791519 327.211273,178.884644 334.012848,172.997147 
	C334.994293,172.147583 336.240936,171.460327 336.308380,169.903397 
	C335.752380,168.179001 334.243073,167.333221 332.951660,166.332840 
	C323.639252,159.119324 313.137543,155.942062 301.310394,156.208344 
	C272.744080,156.851501 250.242203,183.880539 255.206436,211.928925 
	C259.149780,234.209167 277.205048,251.123154 297.775238,252.762039 
	C325.329437,254.957382 344.012054,237.329483 349.756897,218.509521 
	C352.864990,208.327484 352.901489,208.273453 341.435730,208.287750 
M408.287292,165.831924 
	C401.226318,171.616104 393.301880,176.143585 385.693665,180.750839 
	C386.547668,185.304092 388.244904,187.930145 393.069763,187.369171 
	C394.930237,187.152878 397.211182,187.701706 398.812317,188.691620 
	C402.300079,190.847961 404.059845,189.179825 406.192871,186.600601 
	C420.518494,169.278244 434.967468,152.057953 449.373566,134.802155 
	C453.994385,129.267303 453.606720,125.607208 447.694366,120.252457 
	C437.719513,137.880325 424.876801,153.015121 408.287292,165.831924 
M350.509125,192.960968 
	C348.542542,187.050705 346.760651,181.041351 341.956665,175.998169 
	C332.616699,184.120819 323.733002,191.846649 314.849335,199.572464 
	C325.315216,200.721115 335.119995,200.736374 344.924744,200.715958 
	C351.882660,200.701462 351.882629,200.679962 350.509125,192.960968 
M363.573639,178.119736 
	C366.312500,184.385117 368.185638,190.904816 369.274353,197.650284 
	C369.464539,198.828781 369.609863,200.009949 370.984650,200.396027 
	C372.216400,200.741974 373.209778,200.357590 374.102264,199.402191 
	C380.788574,192.244614 381.192780,189.818161 377.031555,180.756638 
	C375.714111,177.887802 374.317291,175.055542 372.970490,172.200073 
	C370.520630,167.005829 368.081055,161.806717 365.639862,156.615372 
	C362.508636,157.649612 361.263916,160.079224 359.160706,161.335663 
	C355.921936,163.270508 355.369110,165.279449 357.910522,168.453659 
	C360.066711,171.146759 361.512604,174.408585 363.573639,178.119736 
z"/>
<path fill="#000000" opacity="1.000000" stroke="none" 
	d="
M137.784698,388.613281 
	C137.749512,358.006592 137.801437,327.861450 137.637970,297.717438 
	C137.616272,293.717773 138.543350,291.570740 142.835968,291.101288 
	C159.397247,289.290131 175.952423,287.846802 192.400757,291.784210 
	C208.553146,295.650696 216.836838,307.552399 214.355194,322.876404 
	C213.338684,329.153229 209.611099,333.672150 204.450806,337.723694 
	C209.067963,340.676117 213.748093,342.959625 216.225311,347.802887 
	C223.496933,362.019653 221.362793,385.085938 196.980713,392.221497 
	C183.292664,396.227386 169.333160,395.689117 155.361679,394.772858 
	C151.057953,394.490570 146.775574,393.821533 142.497955,393.225342 
	C140.084671,392.888947 137.869720,392.150421 137.784698,388.613281 
M195.373947,363.947906 
	C195.681152,356.404572 192.825882,352.503052 185.583420,350.516479 
	C178.719620,348.633759 171.706635,349.507996 164.749268,349.355225 
	C162.131958,349.297791 161.319061,350.813202 161.336868,353.184570 
	C161.381836,359.171997 161.386215,365.160126 161.349075,371.147583 
	C161.335861,373.276367 162.013992,374.557953 164.360901,374.868591 
	C172.037735,375.884613 179.619049,375.625702 187.018234,373.243530 
	C191.207458,371.894775 194.347595,369.350372 195.373947,363.947906 
M191.608063,319.525360 
	C191.214798,314.093933 188.078827,311.258545 182.971054,309.992554 
	C178.359711,308.849640 173.711823,309.204987 169.073212,309.225342 
	C161.355682,309.259247 161.355957,309.325531 161.348206,316.835846 
	C161.332581,331.983246 161.332596,331.983246 176.657608,330.592590 
	C186.478882,329.701385 189.470367,327.636169 191.608063,319.525360 
z"/>
<path fill="#000000" opacity="1.000000" stroke="none" 
	d="
M288.311218,280.045410 
	C291.359497,279.535919 294.001068,279.222931 296.604370,278.714111 
	C300.453094,277.961914 302.039764,279.274506 302.000702,283.356110 
	C301.858887,298.176727 301.953400,312.999634 301.958038,327.821655 
	C301.959351,331.942200 301.958252,336.062744 301.958252,341.502350 
	C308.851837,334.847198 314.474579,328.779358 319.335785,322.152588 
	C323.363892,316.661469 327.943634,314.000244 334.900330,314.759521 
	C340.263031,315.344788 345.740753,314.876190 351.489197,315.568604 
	C342.279663,327.776337 332.228546,338.842773 321.316132,349.606934 
	C333.777344,362.895721 344.947235,376.621948 353.089935,392.925354 
	C349.091064,395.123810 345.214661,394.146606 341.564484,394.096313 
	C324.208374,393.857391 329.613220,396.734741 319.959991,382.480652 
	C314.921021,375.039948 309.666168,367.774567 301.944305,360.994965 
	C301.944305,369.289642 301.960083,376.638428 301.940643,383.987122 
	C301.910034,395.555878 302.286499,394.140442 291.604156,394.165955 
	C278.670410,394.196808 278.674011,394.155945 278.673767,381.243195 
	C278.673187,351.265778 278.619019,321.288208 278.692719,291.310974 
	C278.718597,280.776062 277.059387,282.177765 288.311218,280.045410 
z"/>
<path fill="#000000" opacity="1.000000" stroke="none" 
	d="
M355.651611,358.846130 
	C355.118805,348.900421 356.262573,339.816620 361.144867,331.408752 
	C369.528381,316.971375 386.435822,309.973846 403.262360,314.156158 
	C418.884674,318.039124 428.613007,330.576660 429.292755,347.792328 
	C429.417419,350.950104 429.158905,354.127350 429.367401,357.276367 
	C429.631256,361.260925 427.853943,362.436127 424.049408,362.389648 
	C410.901672,362.229034 397.750671,362.309784 384.601105,362.352020 
	C383.007477,362.357147 381.249146,361.867432 379.897217,363.228210 
	C380.971222,370.141937 386.954926,375.125488 395.060974,375.660553 
	C402.730347,376.166748 410.377533,376.005981 417.750397,373.453613 
	C420.549561,372.484589 422.115997,372.834930 422.457153,376.226013 
	C422.838226,380.013947 423.684265,383.754395 424.306976,387.518982 
	C424.714233,389.980865 423.965057,391.692108 421.348480,392.428375 
	C407.183929,396.414032 392.945801,398.257660 378.737091,392.954071 
	C364.623535,387.686066 356.160431,375.099518 355.651611,358.846130 
M406.066467,341.454681 
	C403.085358,334.458313 397.642181,331.250397 390.834320,332.477661 
	C384.414459,333.634949 380.287689,338.581604 380.158173,345.919617 
	C388.061401,345.919617 395.969574,345.957672 403.876953,345.897278 
	C406.366943,345.878265 406.927338,344.338196 406.066467,341.454681 
z"/>
<path fill="#000000" opacity="1.000000" stroke="none" 
	d="
M497.006287,290.637756 
	C513.822754,290.641846 530.142883,290.792053 546.457397,290.555511 
	C551.072876,290.488586 552.809937,291.980682 552.355103,296.538940 
	C552.075439,299.341644 552.044922,302.224457 552.361389,305.019318 
	C552.929077,310.033295 550.638123,311.260162 546.017334,311.164978 
	C534.533325,310.928497 523.039673,311.197723 511.552155,311.066895 
	C507.771332,311.023834 505.972137,312.204956 506.326447,316.238312 
	C506.587708,319.212677 506.658966,322.260162 506.319122,325.218170 
	C505.757477,330.106750 508.076263,331.142303 512.419617,331.042511 
	C522.071899,330.820709 531.737305,331.158844 541.388855,330.921509 
	C545.944885,330.809479 547.787170,332.380615 547.374512,336.987183 
	C547.078491,340.290863 547.156067,343.652435 547.361816,346.969879 
	C547.577271,350.443695 546.270569,351.599915 542.755920,351.525757 
	C532.603149,351.311615 522.439453,351.593262 512.288147,351.347534 
	C507.879852,351.240814 506.091125,352.391602 506.263885,357.211731 
	C506.633392,367.522003 506.135590,377.862640 506.473389,388.175110 
	C506.635742,393.131592 504.856049,394.642670 500.142548,394.257843 
	C495.841370,393.906708 491.487854,394.083649 487.161499,394.192383 
	C484.083282,394.269714 482.633118,393.209625 482.640076,389.883270 
	C482.706299,358.246552 482.702728,326.609528 482.622711,294.972839 
	C482.614502,291.724609 483.826599,290.472168 487.018372,290.625824 
	C490.174408,290.777802 493.344147,290.645111 497.006287,290.637756 
z"/>
<path fill="#000000" opacity="1.000000" stroke="none" 
	d="
M446.162415,517.093384 
	C432.651733,516.058838 421.508759,511.670929 416.153290,498.632355 
	C410.929779,485.914978 411.767151,473.149323 418.322418,461.134552 
	C424.093140,450.557831 435.067749,446.430786 448.891998,448.738068 
	C454.755096,449.716583 454.765533,449.716644 454.792480,443.583557 
	C454.818085,437.760315 454.969696,431.931824 454.772919,426.115570 
	C454.657471,422.703278 456.269104,421.290527 459.324402,420.834717 
	C462.770081,420.320740 466.261627,419.977997 469.636230,419.160431 
	C473.332672,418.264862 474.392487,419.660767 474.360443,423.154694 
	C474.259827,434.134888 474.332947,445.116638 474.334625,456.097809 
	C474.337280,473.401489 474.245453,490.706024 474.407532,508.008179 
	C474.443512,511.849365 473.235077,513.729065 469.354828,514.482788 
	C461.828186,515.944763 454.245941,516.668274 446.162415,517.093384 
M454.808167,472.772766 
	C454.825043,469.791534 455.259552,466.795227 451.303223,465.530090 
	C441.279022,462.324554 433.934937,467.168182 433.276794,477.681671 
	C433.131805,479.997864 433.112549,482.334747 433.229706,484.652313 
	C433.784210,495.622345 439.429840,500.574890 450.221466,499.996063 
	C453.613007,499.814148 454.914307,498.532867 454.842682,495.142609 
	C454.691833,488.000397 454.802917,480.852692 454.808167,472.772766 
z"/>
<path fill="#000000" opacity="1.000000" stroke="none" 
	d="
M615.527222,337.436340 
	C610.530518,330.227905 605.735474,323.317108 600.294861,315.475891 
	C609.046448,314.542572 616.597412,314.639343 624.130432,315.282562 
	C626.053894,315.446808 626.841370,317.599884 627.834778,319.114075 
	C631.745056,325.074463 635.621216,331.057251 640.172058,338.048859 
	C644.383484,331.677673 648.421509,326.259247 651.683594,320.408295 
	C654.151428,315.981842 657.292664,314.357117 662.184387,314.823883 
	C667.261963,315.308350 672.432434,314.390930 677.459839,315.356995 
	C678.280579,317.796722 676.618164,319.027985 675.628296,320.432800 
	C669.106445,329.688782 662.678345,339.017395 655.892395,348.077332 
	C653.276855,351.569336 653.026672,354.028778 655.921265,357.594910 
	C663.477234,366.903961 670.381104,376.718506 676.487671,387.063873 
	C677.569641,388.896942 678.830811,390.662598 679.169128,393.507568 
	C671.573242,394.748596 664.181396,394.241882 656.823181,393.870911 
	C654.763428,393.767029 654.168091,391.543518 653.301758,389.965332 
	C649.302429,382.679932 644.989807,375.602539 639.602234,368.598602 
	C634.579468,373.321869 631.170227,378.968445 628.684753,384.707458 
	C625.190613,392.775421 619.889709,395.566315 611.582397,394.243256 
	C608.181580,393.701599 604.628845,394.693634 601.251892,393.711121 
	C600.040222,391.320374 601.732300,389.787415 602.669006,388.153290 
	C609.058411,377.006531 616.450623,366.526520 624.370483,356.435699 
	C626.309326,353.965393 626.249084,352.275421 624.442688,349.926575 
	C621.399231,345.969147 618.619507,341.808899 615.527222,337.436340 
z"/>
<path fill="#000000" opacity="1.000000" stroke="none" 
	d="
M195.785812,507.533447 
	C197.360657,503.304352 197.846634,498.273407 200.614243,495.871094 
	C203.774567,493.127960 207.666336,497.822876 211.503738,498.417938 
	C217.437180,499.337982 223.348602,500.401489 229.323425,499.206848 
	C233.249237,498.421906 236.772903,496.779480 237.148300,492.077454 
	C237.486496,487.841492 234.997772,485.140137 231.462006,483.531952 
	C226.624771,481.331757 221.626495,479.487244 216.711319,477.456207 
	C214.408249,476.504578 212.056351,475.625732 209.867004,474.451965 
	C199.511902,468.900330 195.075104,459.924347 196.806961,448.281372 
	C198.311752,438.165039 206.794632,430.045227 218.103851,427.812531 
	C229.025482,425.656342 239.573914,426.928314 249.911560,430.908722 
	C253.180450,432.167358 254.484497,433.838409 252.782379,437.279175 
	C251.097107,440.685913 251.338959,445.558594 248.334167,447.596497 
	C245.201859,449.720886 241.686676,445.872192 238.150864,445.251526 
	C233.020905,444.351013 227.977036,443.740692 222.855026,445.127472 
	C220.078171,445.879272 217.993057,447.298706 217.444336,450.311157 
	C216.866394,453.484070 218.178711,455.978149 220.791687,457.529236 
	C223.490768,459.131378 226.413101,460.383453 229.309097,461.621857 
	C233.741104,463.517120 238.333084,465.060822 242.682434,467.122406 
	C254.357544,472.656311 259.453369,481.630829 258.211426,493.966919 
	C257.054565,505.457916 250.208633,512.679504 237.441254,515.620483 
	C224.584534,518.582092 212.005844,517.315063 199.771805,512.574524 
	C197.772415,511.799774 194.974167,511.248474 195.785812,507.533447 
z"/>
<path fill="#000000" opacity="1.000000" stroke="none" 
	d="
M583.561890,529.535400 
	C576.367065,538.703125 563.190125,539.817749 552.556152,536.493408 
	C551.005188,536.008545 549.533020,535.246399 549.826111,533.472412 
	C550.473145,529.556458 551.091736,525.576416 552.370239,521.844666 
	C553.262085,519.241577 555.861450,520.632141 557.642761,521.064331 
	C562.715637,522.295166 567.222473,521.765198 570.867065,517.651062 
	C573.391663,514.801208 574.160767,512.068420 572.278564,508.190399 
	C564.351562,491.858124 557.440857,475.087738 552.183228,457.682495 
	C551.477783,455.347198 550.194641,453.051544 551.016541,449.745178 
	C556.674622,449.745178 562.442627,449.676971 568.207581,449.778015 
	C570.585938,449.819702 570.814453,451.903412 571.368713,453.656433 
	C574.576477,463.801544 577.813171,473.937683 581.083679,484.062714 
	C581.640137,485.785248 582.407776,487.439514 583.283936,489.643768 
	C586.223083,485.384460 587.024841,480.838776 588.341125,476.545593 
	C590.582031,469.236664 592.802002,461.903992 594.549316,454.468201 
	C595.469482,450.552429 597.412720,449.304077 601.161926,449.618195 
	C605.750244,450.002625 610.415161,449.126312 615.230774,450.213043 
	C614.930176,455.483887 612.710999,460.019623 611.268188,464.720551 
	C605.645691,483.038879 598.642883,500.838440 590.544739,518.203003 
	C588.712708,522.131348 586.589172,525.906799 583.561890,529.535400 
z"/>
<path fill="#000000" opacity="1.000000" stroke="none" 
	d="
M519.961060,516.376587 
	C513.493896,516.330017 507.487854,516.838318 501.609741,515.200867 
	C491.388336,512.353394 486.571350,505.737091 486.630035,494.532898 
	C486.682404,484.533295 491.610565,478.289673 501.758759,475.664642 
	C507.738983,474.117767 513.774231,473.198151 520.012146,474.335724 
	C524.304504,475.118530 525.273438,473.739594 523.633423,469.767914 
	C522.024353,465.871307 518.813354,464.555969 514.891541,464.289581 
	C508.397858,463.848480 502.015472,464.714050 495.762329,466.318665 
	C493.304169,462.142914 493.647919,457.849548 492.784851,453.852295 
	C492.281525,451.520996 493.880463,450.455933 495.795074,450.052490 
	C504.596893,448.197723 513.455627,446.593170 522.466614,448.317352 
	C536.367615,450.977234 542.809448,458.186310 543.199524,472.191528 
	C543.542419,484.500458 543.225159,496.826599 543.340454,509.143829 
	C543.368896,512.179443 542.282715,513.787720 539.240295,514.230957 
	C532.998596,515.140259 526.828979,516.645447 519.961060,516.376587 
M518.276978,501.635040 
	C524.912048,500.890900 525.549866,499.724182 524.689880,491.273193 
	C524.460388,489.018982 523.438904,487.868744 521.407166,487.592560 
	C517.578369,487.072113 513.739807,487.092987 510.069092,488.487488 
	C507.097443,489.616394 505.489838,492.010101 505.668640,495.076233 
	C505.835541,497.937347 507.554688,499.957184 510.532867,500.709106 
	C512.804993,501.282776 515.068237,501.795410 518.276978,501.635040 
z"/>
<path fill="#000000" opacity="1.000000" stroke="none" 
	d="
M376.426941,448.161865 
	C392.808258,450.603241 400.170197,459.007080 400.304657,475.242462 
	C400.401245,486.904175 400.188263,498.569824 400.399933,510.228485 
	C400.472168,514.206543 399.081543,515.474243 395.194550,515.378113 
	C378.214844,514.958008 381.165253,517.856750 380.884583,501.253998 
	C380.738190,492.592773 380.940521,483.922272 380.638733,475.268036 
	C380.357391,467.200256 376.014679,463.850525 368.297302,464.705383 
	C364.406464,465.136383 362.947754,466.629150 363.021698,470.687317 
	C363.255402,483.511719 362.935150,496.346497 363.189362,509.170105 
	C363.284637,513.973877 361.661957,515.492004 356.873230,515.431396 
	C343.650360,515.264160 343.647980,515.452942 343.647339,502.248718 
	C343.646637,487.087433 343.747162,471.924988 343.575775,456.765656 
	C343.531555,452.858551 344.882568,451.154297 348.763367,450.480988 
	C357.786957,448.915466 366.757965,447.144073 376.426941,448.161865 
z"/>
<path fill="#000000" opacity="1.000000" stroke="none" 
	d="
M277.097778,449.653778 
	C289.348846,449.658905 289.201447,449.661316 289.395416,461.566650 
	C289.552368,471.200470 288.541962,480.864563 290.205627,490.470276 
	C291.592804,498.479645 298.078949,502.359009 305.653137,499.618683 
	C308.342987,498.645508 307.650391,496.439117 307.659393,494.584900 
	C307.722382,481.596283 307.851135,468.604523 307.619354,455.619843 
	C307.539642,451.152985 308.800476,449.515839 313.503204,449.554199 
	C327.322906,449.666901 327.314789,449.476257 327.305725,463.127350 
	C327.295898,477.948029 327.165588,492.770935 327.398682,507.587952 
	C327.464081,511.744965 326.018555,513.626221 322.019806,514.306274 
	C312.504974,515.924438 303.037079,517.522583 293.301727,516.405090 
	C280.252777,514.907288 272.289490,507.415588 270.804993,494.364838 
	C269.277008,480.932068 270.154083,467.423187 270.003357,453.946777 
	C269.947113,448.917694 273.504333,449.685059 277.097778,449.653778 
z"/>
<path fill="#000000" opacity="1.000000" stroke="none" 
	d="
M589.249756,369.000061 
	C589.243591,376.159149 589.134399,382.820251 589.267639,389.476501 
	C589.336243,392.905396 587.956543,394.308838 584.544861,394.210297 
	C579.720947,394.070892 574.889709,394.116577 570.062683,394.175201 
	C567.117371,394.210999 565.835144,392.836060 565.835510,389.937958 
	C565.838501,366.298309 565.832703,342.658569 565.765747,319.019043 
	C565.757202,315.995697 567.135071,314.837799 570.010864,314.879791 
	C574.338379,314.943024 578.683533,315.131226 582.991516,314.834595 
	C587.706055,314.510010 589.437622,316.173889 589.358704,321.055389 
	C589.102905,336.866760 589.253296,352.684662 589.249756,369.000061 
z"/>
<path fill="#000000" opacity="1.000000" stroke="none" 
	d="
M235.722168,351.999939 
	C235.722107,341.173737 235.901184,330.843048 235.639999,320.523468 
	C235.526855,316.053436 237.215744,314.584991 241.479553,314.829529 
	C245.962265,315.086670 250.470657,314.954224 254.966705,314.899811 
	C257.870789,314.864655 259.229034,316.119904 259.223480,319.084167 
	C259.179230,342.734283 259.165894,366.384460 259.187073,390.034607 
	C259.189728,393.005615 257.837311,394.242859 254.927643,394.197479 
	C250.265366,394.124725 245.594711,394.023468 240.939774,394.221252 
	C237.069077,394.385681 235.628464,392.888611 235.680695,388.973969 
	C235.842880,376.817963 235.729324,364.658234 235.722168,351.999939 
z"/>
<path fill="#000000" opacity="1.000000" stroke="none" 
	d="
M382.859863,596.913696 
	C383.454529,595.312500 384.033875,594.093811 384.346985,592.810120 
	C385.151031,589.513977 386.863708,589.106506 389.850616,590.423584 
	C394.486938,592.468018 399.468536,593.056519 404.508972,592.577515 
	C407.631958,592.280762 410.649811,591.226562 411.279358,587.728882 
	C411.883362,584.373352 409.304169,582.603821 406.691772,581.369629 
	C403.538849,579.879944 400.247131,578.680603 397.000824,577.392517 
	C386.567841,573.253174 381.470123,566.120239 382.937103,557.679749 
	C384.592377,548.155823 392.006012,542.300476 403.043030,541.695801 
	C408.268799,541.409485 413.289856,542.330322 418.288116,543.742371 
	C422.473846,544.924805 423.813446,546.816284 422.053497,551.334961 
	C420.338562,555.738037 418.926331,558.323669 413.719849,555.532898 
	C410.619537,553.871033 406.912659,554.059631 403.416962,554.471008 
	C401.068085,554.747498 398.722229,555.338989 398.215576,558.245422 
	C397.744659,560.946777 399.050903,562.845337 401.352417,563.895447 
	C406.036652,566.032532 410.891052,567.804382 415.534119,570.022339 
	C424.245056,574.183838 427.644409,580.855469 426.207489,590.377441 
	C425.096436,597.739929 419.493591,602.645447 410.718384,604.425171 
	C402.125061,606.168091 393.850037,605.140747 385.697113,602.286377 
	C383.336884,601.460022 381.240906,600.403809 382.859863,596.913696 
z"/>
<path fill="#000000" opacity="1.000000" stroke="none" 
	d="
M441.731934,597.873047 
	C444.366455,582.790405 449.581970,569.049866 457.589142,555.223694 
	C450.299713,555.223694 444.035370,554.998108 437.795929,555.295288 
	C432.828339,555.531799 432.633545,552.729126 432.586334,548.994629 
	C432.537598,545.137085 433.014465,542.638611 437.869049,542.764587 
	C447.849670,543.023804 457.843140,542.750854 467.828247,542.901672 
	C470.281067,542.938721 473.943756,541.432800 474.885406,544.643311 
	C475.859100,547.963196 476.305328,551.808105 473.789520,555.140137 
	C465.438629,566.200439 460.148346,578.680969 456.949585,592.097351 
	C456.565369,593.708923 456.359467,595.363159 456.073608,596.998047 
	C454.804474,604.256531 454.795105,603.996765 447.316284,604.275940 
	C442.643036,604.450378 440.836914,602.855164 441.731934,597.873047 
z"/>
<path fill="#000000" opacity="1.000000" stroke="none" 
	d="
M350.177490,587.602173 
	C350.046234,590.997498 351.767822,591.664978 354.314697,591.631958 
	C360.135010,591.556519 365.961395,591.742493 371.776428,591.551392 
	C375.262451,591.436890 376.370026,592.797424 376.399536,596.215637 
	C376.468323,604.179016 376.619415,604.188904 368.551514,604.193176 
	C359.237488,604.198120 349.922485,604.099365 340.609985,604.215027 
	C337.059052,604.259094 335.565735,603.043091 335.594635,599.294312 
	C335.726654,582.164246 335.716095,565.031982 335.588959,547.901733 
	C335.562286,544.308960 336.699768,542.555603 340.438843,542.887390 
	C341.759064,543.004578 343.111023,543.026062 344.426575,542.885864 
	C348.856049,542.413879 350.241211,544.533630 350.194672,548.732788 
	C350.052795,561.537903 350.158295,574.345642 350.177490,587.602173 
z"/>
<path fill="#000000" opacity="1.000000" stroke="none" 
	d="
M577.070923,279.685211 
	C586.363892,280.495667 591.813782,286.229309 591.226562,294.127075 
	C590.634888,302.084503 584.363647,306.972412 575.551086,306.344788 
	C569.733521,305.930481 565.567200,302.281708 564.081055,296.299622 
	C562.755371,290.963257 564.848877,285.093475 569.222961,282.253754 
	C571.460449,280.801208 573.868469,279.666687 577.070923,279.685211 
z"/>
<path fill="#000000" opacity="1.000000" stroke="none" 
	d="
M246.180771,306.367188 
	C238.220917,305.217316 234.168320,301.066193 233.711288,294.032501 
	C233.276215,287.336975 236.965881,282.122437 243.528061,280.158569 
	C249.487885,278.374969 256.613312,281.254944 259.433807,286.587433 
	C262.447388,292.285004 261.149353,299.314911 256.393158,303.434082 
	C253.554794,305.892303 250.231613,306.578308 246.180771,306.367188 
z"/>
<path fill="#000000" opacity="1.000000" stroke="none" 
	d="
M539.595093,579.875000 
	C541.752991,582.227783 539.623474,583.298828 538.383362,584.224243 
	C534.359253,587.227234 529.867065,587.380493 525.849792,584.564270 
	C521.905273,581.799133 517.765991,581.149902 513.160278,581.288513 
	C507.020386,581.473328 500.870453,581.319824 494.724823,581.317200 
	C491.461060,581.315857 488.971832,579.940369 488.953766,576.525635 
	C488.935425,573.054626 491.569458,571.755920 494.740021,571.725830 
	C501.549469,571.661255 508.363037,571.563110 515.168518,571.734009 
	C518.842285,571.826233 521.774292,570.971985 524.632385,568.405945 
	C529.436584,564.092712 535.253662,564.642151 539.011230,569.432556 
	C536.295288,571.612976 529.646118,570.374023 532.226807,577.419739 
	C533.874084,581.917236 536.945190,578.962524 539.595093,579.875000 
z"/>
<path fill="#000000" opacity="1.000000" stroke="none" 
	d="
M274.181335,577.401611 
	C276.242859,574.587219 275.172882,571.877625 273.709412,569.905334 
	C272.134521,567.782837 268.864532,570.304565 266.721832,568.582275 
	C268.190796,563.647156 273.821350,560.217407 278.359955,563.276733 
	C287.781036,569.627258 297.919739,567.019165 307.829193,567.658325 
	C309.488495,567.765320 311.160431,567.660706 312.823547,567.727966 
	C315.890503,567.852051 318.119568,569.296692 318.116364,572.491882 
	C318.113129,575.727539 315.733154,577.162476 312.760101,577.222473 
	C306.267548,577.353455 299.768036,577.415649 293.277161,577.261719 
	C288.820587,577.155945 285.015259,577.711243 281.461975,581.113098 
	C277.236755,585.158386 271.149750,584.098572 268.353333,579.600586 
	C269.938232,578.242126 272.019287,578.214478 274.181335,577.401611 
z"/>
</svg>